<?xml version="1.0" standalone="no"?><!DOCTYPE svg PUBLIC "-//W3C//DTD SVG 1.1//EN" "http://www.w3.org/Graphics/SVG/1.1/DTD/svg11.dtd"><svg height="1024" node-id="1" sillyvg="true" template-height="1024" template-width="1024" version="1.1" viewBox="0 0 1024 1024" width="1024" xmlns="http://www.w3.org/2000/svg" xmlns:xlink="http://www.w3.org/1999/xlink"><defs node-id="100"></defs><path d="M 0.00 0.00 L 1024.00 0.00 L 1024.00 1024.00 L 0.00 1024.00 L 0.00 0.00 Z M 334.10 791.20 L 334.00 804.40 L 334.20 806.70 L 335.80 810.30 L 337.60 812.30 L 339.90 814.00 L 474.40 871.80 L 482.50 875.00 L 484.50 875.40 L 487.60 875.20 L 490.00 873.50 L 490.80 872.30 L 491.70 868.70 L 489.90 683.20 L 488.90 678.20 L 486.80 675.20 L 485.40 674.00 L 483.30 673.10 L 480.70 672.50 L 479.20 671.20 L 541.00 664.60 L 637.00 655.00 L 766.20 642.90 L 771.60 643.10 L 775.10 643.50 L 778.70 644.40 L 782.40 645.70 L 647.50 659.40 L 505.50 674.70 L 503.50 675.10 L 502.10 675.70 L 501.10 676.60 L 500.40 677.70 L 499.80 681.20 L 500.00 752.20 L 499.20 860.70 L 499.80 864.30 L 501.60 866.60 L 502.90 867.40 L 506.90 868.50 L 511.90 868.90 L 514.20 868.70 L 790.70 818.00 L 802.30 815.30 L 805.10 815.10 L 807.60 815.50 L 810.10 816.50 L 814.60 820.00 L 820.70 826.70 L 822.60 828.30 L 824.30 829.00 L 826.00 829.20 L 827.70 828.90 L 836.10 825.70 L 837.30 824.70 L 838.10 823.50 L 838.80 821.20 L 838.90 779.00 L 839.00 777.40 L 839.80 775.40 L 841.60 774.30 L 843.30 773.90 L 900.30 764.10 L 901.80 763.60 L 906.00 761.30 L 901.40 760.20 L 899.90 760.20 L 861.40 765.60 L 838.90 768.40 L 838.10 637.20 L 837.60 634.20 L 836.30 632.30 L 833.30 631.00 L 768.50 616.30 L 767.10 615.60 L 765.40 613.50 L 764.90 612.00 L 763.90 604.10 L 762.40 598.30 L 760.60 593.50 L 759.30 591.40 L 757.50 589.70 L 754.50 588.20 L 751.70 587.60 L 745.50 582.30 L 736.60 580.20 L 722.10 574.70 L 712.60 573.40 L 711.10 572.80 L 707.60 569.70 L 706.60 569.30 L 703.90 568.90 L 698.10 569.10 L 695.20 569.70 L 692.60 570.80 L 690.10 572.30 L 688.10 574.20 L 683.60 580.40 L 682.30 581.60 L 679.10 582.90 L 677.30 583.10 L 674.60 582.80 L 671.50 582.00 L 665.40 580.90 L 663.30 580.90 L 662.10 581.30 L 661.30 581.90 L 660.70 582.90 L 659.60 588.60 L 660.20 588.10 L 548.70 514.20 L 554.20 510.90 L 559.10 507.20 L 563.60 503.10 L 567.70 498.70 L 571.30 493.80 L 574.50 488.60 L 577.40 483.10 L 579.80 477.10 L 583.80 465.50 L 585.50 459.60 L 589.00 442.00 L 594.80 407.20 L 601.20 404.50 L 604.80 401.90 L 607.80 399.00 L 610.40 395.80 L 612.60 392.30 L 614.50 388.50 L 616.00 384.40 L 618.10 376.30 L 619.70 368.10 L 620.70 359.90 L 621.10 351.60 L 621.10 343.30 L 620.70 335.00 L 619.40 327.40 L 616.90 321.10 L 613.20 315.80 L 608.50 311.70 L 605.80 310.20 L 602.90 309.00 L 596.40 307.60 L 592.50 307.50 L 588.60 307.80 L 581.10 309.60 L 577.50 311.10 L 568.90 315.30 L 570.00 313.00 L 575.20 305.20 L 576.00 302.90 L 576.40 300.40 L 576.30 297.90 L 575.80 295.60 L 574.90 293.40 L 573.60 291.40 L 571.90 289.80 L 569.90 288.50 L 562.20 285.20 L 554.60 282.40 L 546.80 280.30 L 539.10 278.70 L 532.80 277.90 L 526.40 277.40 L 519.90 277.40 L 513.40 277.80 L 506.70 278.60 L 498.90 280.10 L 491.40 282.10 L 484.10 284.60 L 478.80 286.90 L 473.60 289.60 L 468.60 292.70 L 463.60 296.30 L 461.10 292.80 L 458.40 290.00 L 455.40 287.80 L 452.00 286.00 L 448.40 284.70 L 444.40 283.90 L 438.80 283.50 L 433.50 283.70 L 428.40 284.40 L 423.60 285.80 L 418.90 287.60 L 414.40 290.00 L 410.00 292.90 L 405.70 296.30 L 400.60 300.90 L 396.00 305.80 L 391.90 311.00 L 388.20 316.60 L 385.00 322.50 L 382.30 328.80 L 378.70 339.20 L 375.50 349.70 L 372.90 360.30 L 370.80 370.90 L 369.30 381.60 L 368.40 392.40 L 368.00 403.30 L 368.20 414.40 L 368.60 419.90 L 369.50 425.20 L 370.70 430.40 L 372.30 435.30 L 374.40 440.10 L 376.90 444.70 L 380.00 449.20 L 383.70 453.40 L 387.30 456.80 L 391.00 459.50 L 395.10 461.60 L 398.20 462.90 L 405.30 464.40 L 409.20 464.70 L 408.10 463.00 L 404.40 460.20 L 401.40 457.10 L 399.10 453.90 L 397.20 450.40 L 395.80 446.70 L 394.90 442.80 L 394.10 434.60 L 394.40 427.90 L 395.80 423.50 L 396.90 421.60 L 398.50 419.90 L 400.50 418.40 L 404.30 416.10 L 408.30 414.50 L 412.30 413.50 L 418.40 413.20 L 424.30 414.50 L 427.00 415.80 L 429.70 417.50 L 432.30 419.70 L 434.80 422.50 L 436.70 426.00 L 441.10 421.30 L 448.70 411.70 L 451.90 406.80 L 455.70 399.90 L 459.10 392.80 L 461.90 385.50 L 466.30 370.20 L 468.10 362.10 L 472.10 369.00 L 476.50 375.20 L 481.20 381.00 L 486.30 386.30 L 491.90 391.30 L 498.00 395.90 L 489.50 399.00 L 482.50 402.40 L 481.50 403.50 L 481.10 405.50 L 482.10 408.10 L 483.70 409.10 L 485.10 409.10 L 489.80 407.90 L 516.70 403.40 L 518.00 402.90 L 522.00 400.00 L 518.90 396.20 L 517.70 395.30 L 516.20 394.90 L 508.80 394.30 L 506.60 393.50 L 487.70 378.80 L 484.90 375.50 L 489.10 378.80 L 497.90 384.20 L 502.40 386.30 L 508.70 388.70 L 515.10 390.70 L 521.70 392.10 L 535.20 393.90 L 542.30 394.30 L 539.30 397.90 L 538.30 401.50 L 538.50 402.40 L 539.10 403.10 L 541.60 403.80 L 547.70 402.90 L 552.60 402.60 L 557.40 402.70 L 564.70 403.50 L 572.00 404.70 L 574.80 404.20 L 577.80 402.90 L 574.70 398.00 L 570.20 396.20 L 559.00 393.40 L 588.30 385.50 L 589.60 397.90 L 589.60 401.90 L 588.60 413.80 L 587.00 425.60 L 584.70 437.20 L 581.90 448.70 L 578.70 460.20 L 575.00 471.50 L 572.70 477.40 L 570.00 482.90 L 566.90 488.10 L 563.40 492.80 L 559.40 497.30 L 555.00 501.40 L 550.10 505.10 L 544.70 508.60 L 538.20 512.10 L 531.50 514.80 L 524.90 516.90 L 518.10 518.50 L 511.20 519.60 L 504.20 520.20 L 497.20 520.30 L 482.90 519.50 L 476.70 518.70 L 470.70 517.40 L 465.00 515.60 L 459.50 513.40 L 454.30 510.80 L 449.20 507.60 L 444.40 503.90 L 439.70 499.70 L 435.30 494.90 L 431.40 490.00 L 428.00 484.80 L 425.00 479.50 L 422.50 474.00 L 420.50 468.50 L 434.70 456.40 L 435.20 455.50 L 435.70 451.50 L 431.90 452.10 L 430.80 452.50 L 417.10 461.90 L 416.00 463.10 L 415.30 464.30 L 415.00 465.70 L 415.10 467.30 L 415.70 469.20 L 426.80 495.90 L 415.00 500.80 L 411.00 502.80 L 380.70 521.30 L 363.70 531.30 L 357.20 535.60 L 351.00 540.20 L 345.10 545.20 L 339.50 550.60 L 334.10 556.40 L 275.10 625.30 L 249.40 656.30 L 239.80 670.10 L 233.20 681.70 L 230.30 687.80 L 227.90 694.00 L 225.70 700.50 L 224.20 706.60 L 223.40 712.60 L 223.30 720.70 L 223.80 724.70 L 224.70 728.60 L 226.10 732.50 L 227.90 736.50 L 230.60 740.80 L 233.50 744.70 L 236.60 748.00 L 239.90 750.90 L 243.50 753.40 L 247.30 755.40 L 251.30 756.90 L 255.50 758.10 L 260.10 758.90 L 265.00 759.20 L 270.40 759.10 L 276.10 758.50 L 300.70 754.10 L 301.90 757.10 L 302.90 761.90 L 302.40 765.50 L 301.70 767.30 L 300.40 769.10 L 291.80 777.90 L 284.10 786.90 L 281.10 789.00 L 278.50 789.90 L 275.40 790.40 L 196.70 796.40 L 95.20 806.20 L 63.10 810.30 L 61.30 810.70 L 55.90 812.90 L 56.50 814.40 L 334.20 791.20 Z M 237.60 840.10 L 237.60 839.10 L 234.40 838.80 L 231.20 838.90 L 228.80 839.60 L 227.20 840.90 L 227.10 841.80 L 227.80 844.20 L 238.20 856.50 L 261.00 888.60 L 262.30 890.20 L 263.50 891.10 L 264.60 891.50 L 267.30 891.10 L 278.90 885.20 L 284.00 883.00 L 289.10 881.20 L 299.30 878.40 L 333.30 869.90 L 335.00 868.90 L 335.70 868.00 L 335.50 866.20 L 333.10 862.80 L 323.20 852.50 L 313.10 842.50 L 311.90 841.60 L 308.60 840.40 L 237.60 840.10 Z M 272.30 525.70 L 274.40 525.90 L 276.70 521.50 L 277.10 520.00 L 279.20 502.10 L 280.20 499.10 L 281.60 496.60 L 283.30 494.50 L 285.60 492.60 L 288.30 491.10 L 295.00 489.00 L 298.20 487.70 L 299.00 487.10 L 301.00 484.20 L 298.20 482.70 L 293.40 482.30 L 290.10 481.50 L 287.20 480.30 L 284.70 478.50 L 282.60 476.30 L 280.70 473.60 L 279.20 470.40 L 274.80 455.10 L 274.20 454.20 L 271.00 452.00 L 268.70 454.80 L 268.30 455.70 L 268.30 459.20 L 269.10 466.20 L 269.00 469.30 L 268.40 472.00 L 267.50 474.30 L 266.10 476.50 L 264.30 478.40 L 261.80 480.30 L 258.70 482.00 L 251.00 485.50 L 250.30 486.20 L 248.40 489.10 L 252.10 490.80 L 259.00 491.20 L 262.30 492.10 L 264.90 493.40 L 267.10 495.20 L 268.50 497.00 L 270.60 501.40 L 271.10 504.10 L 271.30 507.40 L 271.10 520.40 L 272.20 525.70 Z M 693.50 444.90 L 696.00 444.90 L 698.40 438.60 L 699.30 433.30 L 699.80 424.00 L 700.30 420.70 L 701.30 417.90 L 702.60 415.60 L 704.20 413.50 L 706.30 411.80 L 708.80 410.40 L 718.50 407.00 L 721.70 403.80 L 718.70 402.10 L 714.00 401.30 L 708.60 399.60 L 706.40 398.40 L 704.50 396.80 L 702.80 394.90 L 700.20 389.90 L 695.50 374.30 L 695.00 373.40 L 691.80 371.10 L 690.30 373.20 L 689.20 375.40 L 689.10 377.00 L 689.70 385.70 L 689.50 389.00 L 688.90 391.80 L 688.00 394.20 L 686.70 396.30 L 684.90 398.20 L 682.50 399.80 L 675.30 402.70 L 671.30 404.80 L 670.00 406.20 L 669.60 407.80 L 670.60 409.00 L 672.40 409.70 L 676.90 409.80 L 680.60 410.20 L 683.60 411.10 L 686.10 412.40 L 688.30 414.20 L 690.00 416.30 L 691.20 418.90 L 692.10 421.90 L 692.40 425.60 L 692.20 439.10 L 693.50 444.80 Z M 539.00 428.40 L 539.10 420.20 L 538.90 419.10 L 537.80 418.10 L 536.60 417.90 L 535.20 418.90 L 532.50 423.70 L 532.20 425.40 L 532.10 431.60 L 533.10 440.20 L 534.20 444.40 L 535.70 448.40 L 538.70 454.30 L 539.20 456.00 L 539.20 459.30 L 538.10 462.20 L 536.00 464.50 L 534.50 465.30 L 532.50 466.10 L 530.80 466.20 L 529.20 465.70 L 527.80 464.80 L 523.50 459.50 L 520.50 457.40 L 518.80 461.40 L 518.70 462.70 L 519.80 466.60 L 522.20 469.70 L 525.60 471.80 L 529.60 472.70 L 531.90 472.70 L 534.70 472.20 L 537.20 471.40 L 539.40 470.10 L 541.40 468.50 L 543.00 466.70 L 544.30 464.60 L 545.20 462.30 L 545.80 459.80 L 545.90 457.10 L 545.70 454.50 L 545.00 451.70 L 541.50 443.70 L 539.90 438.60 L 539.20 435.20 L 539.00 428.40 Z M 518.20 495.10 L 532.80 489.20 L 533.80 488.00 L 535.20 484.00 L 530.30 484.30 L 523.50 487.10 L 520.60 488.00 L 518.70 488.30 L 515.70 487.90 L 513.30 486.20 L 510.50 482.10 L 508.20 477.60 L 505.90 476.00 L 504.30 478.30 L 504.00 481.60 L 504.50 484.10 L 505.50 486.50 L 506.80 488.60 L 508.50 490.50 L 510.60 492.20 L 512.90 493.50 L 515.40 494.50 L 518.20 495.10 Z M 509.20 430.20 L 505.90 425.40 L 504.20 424.30 L 503.20 424.40 L 500.80 425.70 L 498.80 427.70 L 498.20 428.70 L 497.20 433.60 L 497.30 438.80 L 497.70 439.80 L 498.70 440.80 L 501.10 442.10 L 503.20 441.60 L 505.10 440.00 L 509.20 430.20 Z M 299.40 315.60 L 299.10 313.70 L 298.50 312.10 L 297.40 310.70 L 296.00 309.60 L 294.40 308.90 L 292.50 308.70 L 290.60 308.90 L 289.00 309.60 L 287.60 310.60 L 286.60 312.00 L 286.00 313.60 L 285.70 315.70 L 285.90 317.70 L 286.60 319.40 L 287.60 320.70 L 288.90 321.80 L 290.50 322.50 L 292.40 322.70 L 294.20 322.40 L 295.90 321.70 L 297.30 320.50 L 298.40 319.10 L 299.10 317.50 L 299.40 315.60 Z M 400.40 197.90 L 400.20 196.10 L 399.60 194.50 L 398.60 193.10 L 397.30 192.10 L 395.80 191.40 L 394.00 191.10 L 392.10 191.30 L 390.50 191.90 L 389.10 193.00 L 388.00 194.30 L 387.30 196.00 L 387.00 198.00 L 387.20 199.90 L 387.70 201.50 L 388.60 202.90 L 389.80 204.00 L 391.30 204.70 L 393.10 205.00 L 395.10 204.80 L 396.80 204.20 L 398.30 203.10 L 399.40 201.70 L 400.10 200.00 L 400.40 197.90 Z M 759.10 333.20 L 758.80 331.40 L 758.10 329.80 L 757.10 328.40 L 755.70 327.30 L 754.20 326.60 L 752.50 326.40 L 750.70 326.70 L 749.10 327.40 L 747.70 328.50 L 746.60 330.00 L 746.00 331.70 L 745.80 333.60 L 746.00 335.50 L 746.70 337.00 L 747.70 338.30 L 748.90 339.30 L 750.50 339.90 L 752.40 340.20 L 754.30 339.90 L 755.90 339.30 L 757.20 338.20 L 758.30 336.80 L 758.90 335.20 L 759.10 333.20 Z M 480.90 459.30 L 482.80 460.70 L 483.60 460.90 L 487.30 461.00 L 489.10 460.80 L 490.60 460.20 L 492.30 458.70 L 495.20 455.00 L 496.30 452.90 L 496.30 452.40 L 495.90 451.50 L 493.30 448.80 L 492.50 448.40 L 491.00 448.30 L 489.20 448.90 L 487.30 450.00 L 483.70 453.40 L 482.30 455.40 L 481.30 457.40 L 480.90 459.30 Z M 420.50 438.80 L 416.00 432.80 L 414.60 431.40 L 413.60 431.00 L 409.20 431.30 L 409.80 434.90 L 412.40 439.60 L 412.50 440.80 L 411.90 441.90 L 410.10 443.90 L 409.70 446.70 L 413.00 447.20 L 413.60 447.00 L 420.50 438.80 Z M 558.70 426.20 L 554.10 419.10 L 550.00 422.60 L 549.30 423.60 L 548.90 424.50 L 548.70 427.00 L 548.90 429.60 L 549.90 434.90 L 550.60 435.30 L 552.80 435.60 L 558.70 426.20 Z M 564.10 451.30 L 565.10 452.50 L 568.90 448.20 L 569.90 446.70 L 570.10 445.00 L 569.60 443.10 L 568.90 442.10 L 565.70 441.60 L 564.10 441.80 L 561.20 443.10 L 557.60 446.90 L 557.10 447.80 L 556.60 451.30 L 561.50 451.90 L 564.10 451.30 Z M 230.00 561.90 L 224.80 557.40 L 224.30 557.40 L 222.90 558.10 L 220.60 560.70 L 220.00 562.10 L 219.90 563.50 L 220.60 565.70 L 221.50 566.50 L 222.60 566.90 L 224.00 566.90 L 225.30 566.30 L 230.10 561.90 Z M 724.40 536.00 L 728.90 531.10 L 729.50 529.70 L 729.00 528.40 L 726.10 525.30 L 722.00 529.10 L 721.00 530.50 L 721.90 532.50 L 724.40 536.00 Z M 471.30 231.70 L 465.80 228.20 L 464.70 228.00 L 463.60 228.50 L 460.30 232.20 L 463.80 235.50 L 465.00 236.00 L 466.10 235.70 L 471.30 231.70 Z M 344.90 433.50 L 340.00 430.00 L 338.90 429.80 L 337.80 430.20 L 336.70 431.30 L 335.30 433.80 L 335.80 435.20 L 338.10 437.10 L 338.80 437.30 L 339.90 437.00 L 344.90 433.50 Z M 783.30 432.40 L 780.40 437.70 L 780.20 438.80 L 781.00 440.20 L 782.60 441.40 L 784.10 441.80 L 785.50 441.00 L 787.20 438.60 L 787.30 437.90 L 787.00 436.90 L 783.30 432.40 Z M 197.40 657.80 L 193.10 654.50 L 192.20 654.30 L 190.60 655.00 L 189.20 656.50 L 188.70 657.80 L 190.10 660.20 L 192.40 661.70 L 193.20 661.60 L 194.40 660.60 L 197.40 657.80 Z M 365.70 872.00 L 369.10 867.80 L 369.40 866.80 L 369.00 865.90 L 365.80 863.20 L 362.80 866.10 L 362.30 867.20 L 362.50 868.00 L 365.70 872.00 Z M 340.90 514.70 L 336.90 511.60 L 336.20 511.40 L 334.70 512.30 L 333.40 513.70 L 332.90 515.20 L 333.20 516.10 L 336.20 519.10 L 340.90 514.70 Z M 858.00 848.20 L 853.30 845.10 L 852.30 844.90 L 850.90 845.50 L 849.60 846.80 L 849.20 848.10 L 850.40 850.40 L 852.50 851.80 L 853.30 851.60 L 858.00 848.20 Z M 229.00 605.60 L 224.00 602.40 L 223.00 602.20 L 222.10 602.70 L 219.30 605.90 L 222.20 608.70 L 223.10 609.10 L 224.10 608.80 L 229.00 605.60 Z M 259.60 554.20 L 255.20 551.30 L 254.50 551.20 L 253.50 551.70 L 251.00 555.00 L 253.90 557.50 L 254.80 557.80 L 255.70 557.50 L 259.60 554.20 Z M 664.70 471.60 L 660.40 468.40 L 659.60 468.20 L 657.50 469.60 L 655.60 471.60 L 658.20 474.50 L 659.00 474.80 L 660.10 474.60 L 664.70 471.60 Z M 810.00 577.80 L 807.20 582.40 L 807.00 583.50 L 807.30 584.30 L 810.40 586.80 L 813.30 583.70 L 813.70 582.70 L 813.60 581.90 L 810.00 577.90 Z M 291.60 820.00 L 287.60 816.30 L 286.80 816.10 L 284.50 817.30 L 283.00 819.50 L 283.40 820.70 L 284.60 822.20 L 285.90 823.00 L 287.00 822.80 L 291.60 820.00 Z M 242.90 372.20 L 246.30 368.20 L 246.60 367.30 L 246.30 366.40 L 243.70 363.40 L 240.80 365.90 L 240.30 366.80 L 240.40 367.70 L 242.90 372.20 Z M 394.30 237.30 L 390.20 234.30 L 389.40 234.20 L 388.40 234.70 L 387.40 235.60 L 386.20 237.90 L 386.80 239.00 L 388.10 240.20 L 389.60 240.80 L 390.50 240.50 L 394.30 237.30 Z M 636.00 520.90 L 631.80 518.10 L 631.00 518.00 L 629.60 518.70 L 628.30 520.00 L 627.80 521.40 L 628.40 522.70 L 630.50 524.40 L 632.10 524.30 L 636.00 520.80 Z M 767.90 549.80 L 764.80 553.60 L 764.50 554.50 L 764.90 555.30 L 767.70 558.00 L 770.40 555.10 L 770.90 554.00 L 770.80 553.40 L 767.90 549.80 Z M 232.70 458.10 L 229.70 462.20 L 229.60 463.10 L 230.10 464.00 L 233.30 466.70 L 235.80 463.70 L 236.10 462.80 L 235.80 461.90 L 232.70 458.10 Z M 649.20 437.40 L 651.90 433.00 L 652.00 432.10 L 651.50 431.20 L 648.60 428.60 L 645.90 431.50 L 645.60 432.50 L 645.90 433.40 L 649.20 437.40 Z M 833.40 465.90 L 829.20 463.20 L 828.20 463.00 L 826.90 463.60 L 825.70 464.90 L 825.30 466.00 L 826.50 468.20 L 828.30 469.40 L 829.30 469.20 L 833.40 465.90 Z M 523.20 907.90 L 519.50 904.80 L 518.80 904.60 L 517.80 905.10 L 516.80 905.90 L 515.40 907.90 L 515.80 908.90 L 517.70 910.70 L 519.20 910.60 L 523.20 907.90 Z M 793.40 366.20 L 789.80 362.90 L 789.10 362.70 L 788.10 363.10 L 787.00 363.90 L 785.50 365.90 L 785.90 366.90 L 787.70 368.80 L 789.20 368.80 L 793.40 366.20 Z M 874.20 724.90 L 877.00 721.30 L 877.20 720.60 L 876.80 719.70 L 874.10 717.00 L 871.60 719.70 L 871.20 720.60 L 871.40 721.40 L 874.20 724.90 Z M 730.50 474.70 L 733.90 470.90 L 734.20 470.10 L 733.90 469.20 L 731.20 466.50 L 728.40 469.10 L 727.80 470.10 L 727.90 470.70 L 730.50 474.60 Z M 858.50 510.50 L 859.80 507.90 L 856.40 506.40 L 855.40 506.40 L 854.40 506.70 L 853.40 507.50 L 852.10 509.50 L 852.40 510.70 L 853.40 512.10 L 854.40 512.70 L 855.40 512.50 L 858.50 510.50 Z M 661.70 887.30 L 664.50 883.10 L 664.80 882.10 L 664.20 880.90 L 663.10 879.70 L 661.80 879.20 L 660.50 879.70 L 658.90 881.40 L 658.90 882.90 L 661.70 887.30 Z M 499.70 253.10 L 501.20 250.30 L 497.70 248.80 L 496.70 248.70 L 495.60 249.10 L 493.60 250.70 L 493.10 251.70 L 493.30 252.80 L 494.30 254.20 L 495.50 254.90 L 496.50 254.80 L 499.70 253.10 Z M 655.60 250.80 L 658.50 247.10 L 658.80 246.30 L 658.50 245.50 L 656.10 243.00 L 653.60 245.30 L 653.20 246.10 L 653.30 246.90 L 655.60 250.80 Z M 303.40 241.30 L 299.80 238.30 L 299.00 238.10 L 298.20 238.40 L 295.60 240.70 L 297.80 243.30 L 298.60 243.70 L 299.40 243.70 L 303.40 241.30 Z M 877.20 808.10 L 874.30 812.00 L 874.00 812.90 L 874.50 814.20 L 875.70 815.40 L 876.70 815.90 L 878.80 814.70 L 880.10 812.80 L 880.00 812.10 L 877.20 808.10 Z M 589.90 232.60 L 586.50 229.70 L 585.70 229.50 L 584.90 229.90 L 584.00 230.70 L 583.00 232.70 L 583.40 233.80 L 585.00 235.40 L 586.40 235.30 L 589.90 232.60 Z M 223.70 508.20 L 222.40 505.80 L 219.40 503.80 L 218.70 503.80 L 217.00 505.20 L 216.40 506.30 L 216.10 507.20 L 216.70 508.30 L 217.90 509.40 L 219.20 509.90 L 220.30 509.80 L 223.70 508.20 Z M 497.90 185.70 L 500.70 181.50 L 501.00 180.50 L 500.80 179.90 L 498.60 177.60 L 495.80 180.00 L 495.20 180.90 L 495.90 182.70 L 497.90 185.70 Z M 763.30 514.10 L 759.80 511.00 L 759.00 510.80 L 757.20 511.90 L 756.10 513.80 L 756.50 514.90 L 757.60 516.10 L 758.90 516.80 L 759.60 516.60 L 763.30 514.10 Z M 595.30 887.80 L 591.70 885.30 L 590.80 885.00 L 589.70 885.50 L 588.60 886.50 L 588.20 887.50 L 589.10 889.50 L 590.70 890.60 L 591.50 890.50 L 595.30 887.80 Z M 435.30 895.30 L 432.00 892.80 L 431.50 892.70 L 429.70 893.90 L 428.10 895.60 L 430.50 898.20 L 431.30 898.60 L 432.00 898.30 L 435.30 895.30 Z M 278.10 602.20 L 280.30 598.60 L 280.40 597.90 L 280.00 597.20 L 277.60 595.10 L 275.50 597.40 L 275.20 598.20 L 275.40 598.90 L 278.10 602.20 Z M 231.20 500.00 L 228.10 497.50 L 227.40 497.30 L 225.80 498.30 L 224.30 499.90 L 226.60 502.40 L 227.50 502.90 L 228.00 502.80 L 231.20 500.00 Z M 733.80 269.40 L 730.50 266.70 L 729.60 266.30 L 728.70 266.70 L 727.20 268.40 L 728.40 270.30 L 730.10 271.70 L 731.50 271.10 L 733.80 269.40 Z M 664.20 172.00 L 660.60 170.20 L 659.20 170.60 L 657.10 172.80 L 659.00 174.90 L 659.50 175.00 L 661.50 174.00 L 664.20 172.00 Z M 180.00 717.60 L 177.50 720.70 L 177.20 721.50 L 177.60 722.50 L 178.50 723.50 L 179.30 724.00 L 181.10 723.20 L 182.30 721.80 L 181.60 720.10 L 180.00 717.60 Z" fill="#ffffff" fill-rule="nonzero" node-id="102" stroke="none" target-height="1024" target-width="1024" target-x="0" target-y="0"></path><path d="M 334.10 791.20 L 56.40 814.40 L 55.90 812.90 L 61.20 810.70 L 63.00 810.30 L 95.20 806.20 L 196.60 796.40 L 275.30 790.40 L 278.40 789.90 L 281.00 789.00 L 284.10 786.90 L 291.80 777.90 L 300.40 769.10 L 301.60 767.30 L 302.30 765.60 L 302.80 761.90 L 301.80 757.10 L 300.60 754.10 L 276.10 758.50 L 270.30 759.10 L 265.00 759.20 L 260.00 758.90 L 255.40 758.10 L 251.20 757.00 L 247.20 755.40 L 243.40 753.40 L 239.80 750.90 L 236.50 748.00 L 233.40 744.70 L 230.50 740.90 L 227.90 736.50 L 226.00 732.50 L 224.60 728.60 L 223.70 724.70 L 223.20 720.70 L 223.30 712.60 L 224.20 706.60 L 225.70 700.60 L 227.80 694.10 L 230.30 687.80 L 233.10 681.70 L 239.70 670.10 L 249.30 656.30 L 255.60 648.50 L 275.00 625.30 L 334.10 556.50 L 339.40 550.60 L 345.00 545.20 L 350.90 540.20 L 357.10 535.60 L 363.60 531.30 L 380.60 521.30 L 410.90 502.80 L 414.90 500.80 L 426.70 495.90 L 415.60 469.30 L 415.00 467.30 L 414.90 465.70 L 415.20 464.30 L 415.90 463.10 L 417.10 461.90 L 430.70 452.50 L 431.80 452.10 L 435.60 451.50 L 435.20 455.50 L 434.70 456.40 L 420.50 468.50 L 422.40 474.00 L 424.90 479.50 L 427.90 484.80 L 431.30 490.00 L 435.30 494.90 L 439.60 499.70 L 444.30 503.90 L 449.10 507.60 L 454.20 510.80 L 459.50 513.40 L 465.00 515.60 L 470.70 517.40 L 476.60 518.70 L 482.80 519.60 L 497.10 520.30 L 504.10 520.20 L 511.10 519.60 L 518.00 518.50 L 524.80 516.90 L 531.50 514.80 L 538.10 512.10 L 544.70 508.60 L 550.10 505.20 L 555.00 501.40 L 559.40 497.30 L 563.30 492.80 L 566.80 488.10 L 569.90 482.90 L 572.60 477.40 L 574.90 471.50 L 578.60 460.20 L 581.90 448.80 L 584.70 437.20 L 586.90 425.60 L 588.50 413.80 L 589.60 401.90 L 589.60 397.90 L 588.20 385.50 L 558.90 393.40 L 570.10 396.20 L 574.70 398.00 L 577.70 402.90 L 574.70 404.20 L 573.30 404.70 L 571.90 404.70 L 564.60 403.50 L 557.30 402.70 L 552.50 402.60 L 547.60 402.90 L 541.50 403.80 L 539.00 403.10 L 538.40 402.50 L 538.20 401.60 L 539.20 397.90 L 542.20 394.30 L 535.10 393.90 L 521.60 392.10 L 515.00 390.70 L 508.60 388.80 L 502.40 386.30 L 497.80 384.20 L 489.10 378.80 L 484.80 375.50 L 487.60 378.80 L 506.60 393.50 L 508.70 394.30 L 516.20 394.90 L 517.60 395.30 L 518.80 396.20 L 521.90 400.10 L 518.00 402.90 L 516.60 403.40 L 489.70 407.90 L 485.00 409.10 L 483.60 409.10 L 482.00 408.10 L 481.00 405.50 L 481.40 403.50 L 482.40 402.40 L 489.40 399.00 L 497.90 395.90 L 491.90 391.30 L 486.30 386.30 L 481.10 381.00 L 476.40 375.20 L 472.10 369.00 L 468.00 362.10 L 466.30 370.20 L 461.80 385.50 L 459.00 392.90 L 455.70 400.00 L 451.90 406.80 L 448.70 411.80 L 441.10 421.30 L 436.60 426.00 L 434.70 422.50 L 432.20 419.70 L 429.60 417.50 L 427.00 415.80 L 424.20 414.60 L 418.30 413.30 L 415.30 413.20 L 412.20 413.50 L 408.20 414.50 L 404.30 416.10 L 400.40 418.40 L 398.40 419.90 L 396.90 421.60 L 395.70 423.60 L 394.30 427.90 L 394.00 434.60 L 394.80 442.80 L 395.80 446.70 L 397.20 450.40 L 399.00 453.90 L 401.30 457.10 L 404.30 460.20 L 408.00 463.00 L 409.10 464.70 L 405.20 464.40 L 398.20 462.90 L 395.00 461.60 L 391.00 459.50 L 387.20 456.80 L 383.70 453.50 L 380.00 449.20 L 376.90 444.70 L 374.30 440.10 L 372.20 435.30 L 370.60 430.40 L 369.40 425.20 L 368.60 419.90 L 368.10 414.40 L 367.90 403.30 L 368.30 392.40 L 369.20 381.60 L 370.80 370.90 L 372.90 360.30 L 375.50 349.70 L 378.60 339.20 L 382.20 328.80 L 385.00 322.50 L 388.10 316.60 L 391.80 311.00 L 395.90 305.80 L 400.50 300.90 L 405.60 296.30 L 409.90 292.90 L 414.30 290.00 L 418.90 287.70 L 423.50 285.80 L 428.40 284.40 L 433.40 283.70 L 438.70 283.50 L 444.30 283.90 L 448.30 284.70 L 452.00 286.00 L 455.30 287.80 L 458.30 290.00 L 461.10 292.80 L 463.60 296.30 L 468.50 292.70 L 473.60 289.60 L 478.70 286.90 L 484.00 284.60 L 491.30 282.10 L 498.90 280.10 L 506.70 278.60 L 513.30 277.80 L 519.90 277.40 L 526.30 277.40 L 532.70 277.90 L 539.00 278.70 L 546.80 280.30 L 554.50 282.40 L 562.20 285.20 L 569.80 288.50 L 571.90 289.80 L 573.50 291.40 L 574.80 293.40 L 575.70 295.60 L 576.20 298.00 L 576.30 300.40 L 575.90 302.90 L 575.10 305.20 L 569.90 313.00 L 568.80 315.30 L 577.40 311.10 L 581.00 309.60 L 588.60 307.90 L 592.40 307.50 L 596.40 307.70 L 602.80 309.00 L 605.70 310.20 L 608.40 311.70 L 613.10 315.80 L 616.80 321.10 L 619.30 327.40 L 620.60 335.00 L 621.00 343.30 L 621.00 351.60 L 620.60 359.90 L 619.60 368.10 L 618.10 376.30 L 615.90 384.40 L 614.40 388.50 L 612.60 392.30 L 610.40 395.80 L 607.80 399.10 L 604.70 402.00 L 601.10 404.50 L 594.70 407.20 L 588.90 442.10 L 585.40 459.60 L 583.70 465.50 L 579.80 477.10 L 577.30 483.10 L 574.40 488.60 L 571.20 493.80 L 567.60 498.70 L 563.60 503.10 L 559.10 507.20 L 554.10 510.90 L 548.70 514.20 L 660.10 588.20 L 659.60 588.60 L 660.60 582.90 L 661.20 581.90 L 662.10 581.30 L 663.20 581.00 L 665.30 581.00 L 671.40 582.00 L 674.50 582.80 L 677.30 583.10 L 679.00 582.90 L 682.20 581.60 L 683.60 580.40 L 688.00 574.20 L 690.10 572.30 L 692.50 570.80 L 695.20 569.70 L 698.10 569.10 L 703.90 568.90 L 706.50 569.30 L 707.60 569.70 L 711.10 572.80 L 712.50 573.40 L 722.00 574.80 L 736.50 580.20 L 745.40 582.30 L 751.60 587.60 L 754.40 588.30 L 757.50 589.70 L 759.20 591.40 L 760.50 593.50 L 762.40 598.30 L 763.90 604.10 L 764.80 612.00 L 765.30 613.50 L 767.00 615.60 L 768.40 616.40 L 833.20 631.00 L 836.20 632.30 L 837.60 634.20 L 838.00 637.20 L 838.80 768.50 L 861.30 765.60 L 899.80 760.20 L 901.30 760.20 L 905.90 761.40 L 901.70 763.60 L 900.20 764.10 L 843.20 773.90 L 841.60 774.30 L 839.70 775.40 L 838.90 777.40 L 838.90 779.00 L 838.70 821.20 L 838.00 823.50 L 837.20 824.70 L 836.00 825.70 L 827.70 828.90 L 826.00 829.20 L 824.20 829.00 L 822.50 828.30 L 820.60 826.70 L 814.50 820.00 L 810.00 816.50 L 807.60 815.50 L 805.00 815.10 L 802.20 815.30 L 790.60 818.00 L 514.20 868.70 L 511.80 868.90 L 506.80 868.50 L 502.80 867.40 L 501.50 866.60 L 499.80 864.30 L 499.20 860.70 L 499.90 752.20 L 499.70 681.30 L 500.30 677.70 L 501.00 676.60 L 502.10 675.70 L 505.40 674.70 L 647.40 659.40 L 782.30 645.70 L 778.60 644.40 L 775.00 643.50 L 771.50 643.10 L 766.20 642.90 L 636.90 655.10 L 540.90 664.60 L 479.20 671.20 L 480.60 672.50 L 483.30 673.10 L 485.30 674.00 L 486.70 675.20 L 488.80 678.20 L 489.80 683.20 L 491.60 868.70 L 490.70 872.30 L 489.90 873.50 L 487.60 875.20 L 484.40 875.50 L 482.40 875.00 L 474.30 871.80 L 339.80 814.00 L 337.50 812.30 L 335.70 810.30 L 334.20 806.70 L 333.90 804.40 L 334.10 791.20 Z M 793.20 661.60 L 527.30 692.70 L 521.40 693.80 L 520.60 694.40 L 520.00 695.30 L 519.70 696.70 L 519.60 701.20 L 519.30 850.70 L 738.10 809.20 L 789.10 799.80 L 791.50 799.20 L 793.10 798.40 L 794.20 797.40 L 794.90 796.00 L 795.30 792.10 L 793.20 685.20 L 793.20 661.60 Z M 545.40 521.80 L 542.90 530.30 L 540.70 536.40 L 538.20 542.00 L 535.30 547.20 L 532.10 552.10 L 528.50 556.60 L 524.60 560.70 L 520.10 564.50 L 515.30 567.90 L 509.90 571.00 L 504.00 573.80 L 498.10 575.90 L 492.30 577.40 L 486.30 578.30 L 474.30 579.10 L 462.00 578.60 L 456.10 577.80 L 450.40 576.50 L 444.90 574.80 L 439.50 572.70 L 434.50 570.20 L 429.60 567.30 L 425.10 564.10 L 420.80 560.50 L 416.80 556.50 L 413.10 552.20 L 409.70 547.50 L 406.80 542.60 L 404.10 537.40 L 401.80 531.90 L 397.60 518.40 L 370.90 533.80 L 363.30 538.90 L 356.10 544.20 L 349.10 550.00 L 342.40 556.10 L 335.90 562.70 L 329.70 569.70 L 290.10 615.10 L 277.10 630.40 L 260.50 651.30 L 252.60 662.20 L 244.30 674.60 L 240.50 681.00 L 237.00 687.60 L 234.00 694.50 L 231.50 701.60 L 230.40 706.30 L 229.70 710.80 L 229.50 715.10 L 229.80 719.40 L 230.40 723.60 L 231.40 727.60 L 232.80 731.40 L 234.60 734.90 L 236.80 738.30 L 239.30 741.40 L 242.10 744.10 L 245.30 746.50 L 248.70 748.60 L 252.30 750.30 L 256.30 751.50 L 260.70 752.40 L 269.70 752.80 L 281.20 751.70 L 287.90 750.50 L 305.50 746.20 L 327.00 739.30 L 339.70 734.70 L 364.90 724.80 L 374.90 720.50 L 369.50 718.80 L 365.50 716.30 L 362.40 713.00 L 360.50 710.10 L 359.00 706.70 L 357.00 701.00 L 355.70 695.50 L 355.00 690.00 L 354.90 684.50 L 355.40 679.10 L 356.50 673.70 L 358.30 668.30 L 360.70 662.80 L 366.20 652.30 L 365.00 652.10 L 278.30 679.00 L 273.20 680.00 L 272.50 678.20 L 278.70 674.50 L 280.90 673.60 L 332.60 655.10 L 334.90 653.90 L 336.20 652.60 L 337.10 650.90 L 337.60 648.40 L 338.00 637.20 L 338.60 634.90 L 340.10 632.70 L 341.40 632.00 L 343.70 631.40 L 347.50 631.00 L 381.10 628.70 L 383.60 627.90 L 385.80 626.60 L 391.40 621.40 L 395.00 618.50 L 398.90 616.10 L 403.10 614.10 L 407.50 612.50 L 412.10 611.50 L 416.90 610.80 L 421.50 610.80 L 426.00 611.30 L 429.30 612.20 L 432.50 613.50 L 435.70 615.20 L 441.20 619.20 L 443.70 620.50 L 446.40 621.40 L 452.20 622.10 L 520.10 614.80 L 523.60 615.60 L 525.10 616.60 L 527.10 618.80 L 530.10 619.20 L 541.60 618.90 L 564.70 617.60 L 566.40 610.60 L 567.50 608.20 L 568.70 606.60 L 570.40 605.40 L 575.70 603.80 L 580.90 603.00 L 647.10 598.00 L 657.30 597.00 L 630.00 576.20 L 602.50 556.90 L 583.70 544.80 L 564.70 533.10 L 545.40 521.80 Z M 474.00 854.70 L 474.30 849.60 L 473.40 694.80 L 473.10 690.90 L 472.40 688.00 L 470.60 684.80 L 467.80 682.30 L 463.50 680.40 L 460.90 679.70 L 458.70 679.60 L 456.00 680.50 L 441.00 692.50 L 439.80 693.00 L 435.50 693.10 L 436.40 689.00 L 437.10 688.10 L 457.60 671.40 L 464.80 666.70 L 468.20 663.80 L 469.90 661.30 L 470.20 659.80 L 470.00 658.30 L 469.20 656.60 L 468.00 655.20 L 466.70 654.30 L 463.70 653.80 L 460.30 654.60 L 456.30 656.60 L 431.10 674.40 L 428.90 675.80 L 426.70 676.30 L 425.80 675.90 L 424.80 674.80 L 424.60 674.20 L 425.50 671.10 L 426.70 669.60 L 453.30 650.20 L 458.00 646.00 L 453.50 642.20 L 451.90 641.30 L 450.40 641.00 L 447.10 641.40 L 440.70 644.30 L 436.00 647.10 L 416.30 659.90 L 415.20 660.30 L 410.60 659.80 L 411.50 657.40 L 412.70 655.50 L 422.80 648.10 L 433.10 641.10 L 444.40 634.70 L 446.10 632.90 L 446.60 631.70 L 446.70 630.80 L 445.90 629.20 L 444.50 627.80 L 443.10 627.20 L 436.90 627.20 L 433.80 627.50 L 431.10 628.50 L 424.30 632.00 L 404.60 643.40 L 403.20 643.90 L 398.30 644.30 L 400.10 639.60 L 401.00 638.60 L 424.10 624.10 L 429.50 621.10 L 429.50 619.60 L 422.50 617.40 L 420.20 617.00 L 416.60 616.90 L 413.20 617.30 L 409.90 618.10 L 403.50 620.80 L 400.40 622.60 L 396.30 625.60 L 392.70 628.70 L 389.40 632.20 L 383.70 639.80 L 378.00 650.30 L 375.10 657.00 L 371.80 665.90 L 371.00 667.00 L 369.90 667.90 L 368.00 665.50 L 367.10 662.90 L 364.70 667.90 L 363.00 672.70 L 361.90 677.40 L 361.30 682.10 L 361.20 686.80 L 361.60 691.50 L 362.70 696.30 L 364.30 701.20 L 365.90 705.10 L 367.60 708.00 L 369.40 710.20 L 371.50 712.00 L 373.80 713.10 L 376.50 713.80 L 379.30 713.90 L 382.70 713.50 L 386.80 712.50 L 395.40 709.80 L 414.60 702.90 L 415.50 702.90 L 418.60 703.50 L 417.40 706.30 L 414.60 708.50 L 349.30 736.80 L 346.80 738.40 L 346.20 739.60 L 346.00 741.40 L 345.70 765.40 L 344.80 789.30 L 345.00 794.30 L 346.30 797.90 L 347.30 799.40 L 348.70 800.70 L 351.20 802.40 L 354.50 804.00 L 474.00 854.70 Z M 708.00 577.90 L 705.20 576.30 L 702.70 575.40 L 700.50 575.10 L 697.20 575.80 L 695.60 576.80 L 693.80 578.30 L 691.40 581.10 L 689.30 584.30 L 684.60 594.00 L 681.60 598.50 L 678.20 601.30 L 676.20 602.20 L 673.80 602.80 L 651.50 603.70 L 608.10 606.80 L 584.30 609.00 L 577.80 609.90 L 575.70 610.70 L 574.30 611.80 L 573.40 613.20 L 572.70 615.50 L 571.30 623.60 L 568.90 643.30 L 578.70 652.70 L 585.90 621.50 L 586.70 619.20 L 587.80 617.60 L 588.90 616.80 L 591.90 615.80 L 612.20 613.10 L 732.10 603.10 L 733.70 603.00 L 736.10 603.80 L 736.80 604.60 L 737.30 605.90 L 737.50 608.00 L 732.80 608.90 L 640.10 616.10 L 618.30 618.40 L 595.60 621.40 L 592.60 623.20 L 591.60 624.80 L 585.10 653.50 L 591.10 654.00 L 593.20 653.80 L 594.80 653.20 L 596.20 652.10 L 597.40 650.50 L 607.10 627.90 L 607.80 627.10 L 611.60 625.20 L 612.10 628.90 L 612.00 630.00 L 604.00 652.30 L 621.80 650.60 L 622.50 650.30 L 624.20 647.50 L 628.70 631.90 L 629.60 630.30 L 630.70 629.00 L 633.90 627.50 L 757.80 617.10 L 755.90 600.70 L 755.30 599.10 L 752.30 594.50 L 746.90 598.40 L 741.70 605.50 L 740.90 604.00 L 740.60 602.00 L 740.90 599.30 L 742.10 595.50 L 744.60 590.40 L 740.60 587.60 L 738.70 586.90 L 736.90 586.60 L 735.00 586.80 L 733.20 587.40 L 731.30 588.40 L 729.30 590.10 L 727.80 591.80 L 723.80 597.70 L 719.40 601.10 L 718.00 596.70 L 718.10 595.60 L 719.70 592.50 L 725.40 583.40 L 723.10 581.90 L 720.80 581.10 L 718.40 580.90 L 716.70 581.20 L 713.10 583.00 L 711.10 584.60 L 708.70 587.50 L 702.50 597.20 L 701.70 598.00 L 698.30 599.70 L 696.80 596.40 L 696.80 595.50 L 698.10 591.20 L 700.10 587.30 L 701.90 584.90 L 708.00 577.90 Z M 771.20 634.90 L 770.90 636.50 L 776.30 638.00 L 805.10 644.10 L 806.60 645.00 L 807.60 646.00 L 808.70 649.20 L 809.80 804.90 L 810.00 806.90 L 810.80 808.50 L 823.30 819.10 L 821.90 647.80 L 820.90 645.60 L 818.90 644.40 L 817.40 643.90 L 775.40 634.90 L 771.20 634.90 Z M 629.80 649.40 L 761.10 636.80 L 763.10 636.30 L 764.50 635.40 L 767.40 623.30 L 764.10 623.20 L 640.00 632.10 L 638.40 632.50 L 636.60 633.40 L 635.20 634.60 L 634.20 635.90 L 632.90 639.00 L 629.80 649.40 Z M 537.30 521.10 L 534.40 521.40 L 532.10 522.00 L 530.30 523.00 L 528.70 524.40 L 527.50 526.30 L 525.50 531.80 L 520.40 539.20 L 517.10 543.30 L 513.60 546.80 L 510.10 549.90 L 506.40 552.60 L 501.50 555.50 L 496.30 557.80 L 490.90 559.50 L 485.30 560.60 L 479.60 561.20 L 473.60 561.40 L 467.40 561.00 L 460.80 560.10 L 455.60 559.00 L 450.80 557.60 L 446.40 555.90 L 442.30 553.90 L 438.50 551.60 L 434.00 548.30 L 430.00 544.50 L 426.30 540.30 L 422.90 535.70 L 420.00 530.80 L 417.50 525.60 L 415.20 519.90 L 412.00 509.70 L 409.40 511.00 L 407.50 512.50 L 406.30 514.20 L 405.50 516.10 L 405.30 518.40 L 405.70 521.00 L 408.50 530.30 L 412.60 538.90 L 418.10 546.90 L 425.40 554.60 L 433.20 560.60 L 438.80 563.90 L 444.50 566.50 L 450.30 568.60 L 456.30 570.10 L 462.30 571.10 L 468.40 571.60 L 474.40 571.60 L 480.30 571.20 L 486.10 570.40 L 491.80 569.20 L 502.30 565.80 L 507.10 563.60 L 511.50 561.10 L 515.50 558.30 L 519.10 555.30 L 522.40 551.90 L 525.40 548.30 L 528.10 544.40 L 530.50 540.20 L 533.20 534.30 L 535.50 528.00 L 537.30 521.10 Z M 519.40 526.20 L 514.10 526.10 L 511.70 526.60 L 509.70 527.50 L 507.40 529.70 L 505.20 533.30 L 501.80 536.40 L 496.10 539.80 L 491.80 541.60 L 487.00 542.90 L 482.20 543.70 L 477.20 544.10 L 472.00 544.00 L 466.90 543.50 L 461.90 542.50 L 457.20 541.20 L 452.60 539.40 L 448.50 537.20 L 444.80 534.60 L 441.30 531.50 L 435.30 524.80 L 432.80 521.10 L 430.70 517.20 L 429.00 513.10 L 427.70 508.80 L 426.80 504.10 L 421.50 505.20 L 420.60 505.70 L 419.80 507.40 L 420.60 512.10 L 422.20 517.60 L 424.10 522.60 L 426.40 527.20 L 428.80 531.30 L 431.70 535.20 L 434.90 538.70 L 438.20 541.70 L 441.80 544.50 L 445.60 546.80 L 453.70 550.50 L 462.40 552.80 L 471.50 553.60 L 476.30 553.40 L 482.50 552.70 L 488.90 551.40 L 495.20 549.40 L 499.30 547.70 L 502.90 545.60 L 506.30 543.20 L 509.40 540.40 L 514.90 534.00 L 519.40 526.20 Z M 463.50 643.00 L 465.80 646.50 L 466.40 647.00 L 474.10 650.10 L 476.90 650.70 L 479.70 650.90 L 493.90 648.90 L 548.20 644.40 L 549.60 643.80 L 550.50 643.00 L 551.00 641.70 L 550.60 637.90 L 550.10 636.60 L 549.00 635.30 L 546.70 635.00 L 498.50 639.10 L 463.40 643.00 Z M 307.00 751.80 L 309.00 757.80 L 311.50 763.50 L 313.50 767.20 L 318.00 773.60 L 320.50 776.40 L 325.80 780.60 L 328.70 782.10 L 331.50 783.00 L 334.40 783.30 L 334.40 742.60 L 307.00 751.80 Z M 521.90 630.90 L 522.10 626.40 L 521.80 623.90 L 521.30 622.60 L 520.50 621.70 L 519.30 621.20 L 517.00 620.90 L 512.90 621.10 L 500.90 622.00 L 454.60 626.80 L 454.00 634.10 L 457.50 635.70 L 460.30 636.50 L 464.00 636.60 L 521.90 630.90 Z M 500.70 527.90 L 492.20 527.70 L 483.90 527.00 L 475.90 525.80 L 470.10 524.40 L 464.30 522.60 L 458.80 520.40 L 453.30 517.70 L 448.20 514.60 L 443.10 511.00 L 438.20 506.80 L 433.40 502.00 L 434.00 505.80 L 436.40 513.00 L 438.10 516.40 L 440.90 520.60 L 444.10 524.40 L 447.90 527.70 L 450.90 529.90 L 457.60 533.20 L 465.90 535.40 L 470.40 536.10 L 474.90 536.40 L 479.40 536.30 L 483.80 535.70 L 488.20 534.70 L 492.40 533.10 L 496.50 530.80 L 500.70 527.90 Z M 832.00 639.80 L 829.80 640.00 L 829.80 820.50 L 831.70 820.90 L 833.30 818.10 L 833.50 817.20 L 832.70 684.10 L 832.00 639.80 Z M 475.40 665.80 L 571.40 655.30 L 570.50 653.80 L 568.60 652.00 L 566.90 651.40 L 565.20 651.20 L 480.50 657.10 L 478.50 658.30 L 476.90 660.50 L 475.40 665.80 Z M 528.70 629.90 L 531.20 630.00 L 548.60 628.80 L 552.90 629.00 L 560.30 630.20 L 562.10 630.00 L 563.10 629.40 L 563.70 628.40 L 563.90 626.90 L 563.60 624.70 L 528.70 624.70 L 528.70 629.90 Z M 485.00 352.90 L 485.40 355.90 L 486.10 358.40 L 487.20 360.40 L 489.30 363.20 L 491.80 365.50 L 497.30 369.70 L 502.90 373.50 L 508.80 376.70 L 514.90 379.50 L 521.30 381.90 L 528.00 383.80 L 533.20 384.50 L 538.60 385.00 L 538.80 383.70 L 531.00 381.90 L 518.50 378.20 L 509.10 374.10 L 504.60 371.60 L 500.30 368.70 L 496.10 365.50 L 492.20 361.90 L 488.50 357.70 L 485.00 352.90 Z M 666.80 596.20 L 673.60 596.00 L 675.70 595.60 L 676.60 595.00 L 677.60 593.90 L 678.90 591.30 L 678.40 590.50 L 677.10 589.40 L 675.80 588.70 L 667.30 587.40 L 666.80 596.20 Z M 402.40 313.30 L 399.80 315.50 L 396.90 318.80 L 394.30 322.60 L 389.40 331.50 L 385.80 340.80 L 384.70 344.80 L 384.30 347.50 L 384.50 351.40 L 389.50 336.70 L 391.50 332.10 L 393.80 327.50 L 402.40 313.30 Z M 363.00 635.10 L 362.60 636.70 L 376.70 639.30 L 377.50 638.60 L 379.60 635.10 L 363.00 635.10 Z M 358.80 648.30 L 358.90 647.20 L 348.10 642.60 L 348.10 651.10 L 358.80 648.30 Z M 557.30 635.90 L 557.40 642.40 L 557.70 643.10 L 559.70 645.30 L 562.00 642.30 L 562.70 635.60 L 557.30 635.90 Z M 394.30 366.60 L 399.50 367.10 L 404.10 366.30 L 407.40 364.50 L 408.60 363.30 L 409.30 362.00 L 409.50 360.60 L 394.30 366.60 Z M 406.80 375.30 L 392.60 381.40 L 396.20 381.80 L 399.20 381.50 L 401.70 380.70 L 404.80 378.60 L 406.80 375.30 Z" fill="#000000" fill-rule="nonzero" node-id="104" stroke="none" target-height="598.1" target-width="850" target-x="55.9" target-y="277.4"></path><path d="M 237.60 840.10 L 308.60 840.40 L 311.90 841.60 L 313.10 842.50 L 323.30 852.50 L 333.10 862.80 L 335.50 866.20 L 335.70 868.00 L 335.00 868.90 L 333.30 869.90 L 299.30 878.40 L 289.10 881.20 L 284.00 883.00 L 279.00 885.20 L 267.30 891.10 L 264.60 891.50 L 263.50 891.10 L 262.30 890.20 L 261.00 888.60 L 238.20 856.50 L 227.80 844.20 L 227.10 841.80 L 227.20 840.90 L 228.80 839.60 L 231.20 838.90 L 234.40 838.80 L 237.60 839.10 L 237.60 840.10 Z M 266.40 884.90 L 275.90 879.90 L 288.20 875.30 L 295.80 873.00 L 327.20 865.40 L 312.40 849.70 L 310.60 848.00 L 308.60 846.90 L 306.40 846.20 L 237.30 844.90 L 266.40 884.90 Z" fill="#000000" fill-rule="nonzero" node-id="106" stroke="none" target-height="52.700012" target-width="108.600006" target-x="227.1" target-y="838.8"></path><path d="M 272.30 525.70 L 271.10 520.40 L 271.40 507.40 L 271.10 504.10 L 270.60 501.40 L 269.70 499.00 L 268.60 496.90 L 267.10 495.20 L 264.90 493.40 L 262.30 492.10 L 259.00 491.20 L 252.10 490.80 L 248.50 489.00 L 250.30 486.20 L 251.10 485.50 L 258.70 481.90 L 261.80 480.20 L 264.30 478.40 L 266.10 476.40 L 267.50 474.30 L 268.40 472.00 L 269.00 469.30 L 269.10 466.20 L 268.30 459.10 L 268.40 455.70 L 268.70 454.80 L 271.00 452.00 L 274.20 454.20 L 274.80 455.10 L 279.20 470.40 L 280.70 473.60 L 282.60 476.30 L 284.70 478.50 L 287.20 480.30 L 290.10 481.50 L 293.40 482.30 L 298.20 482.70 L 301.00 484.20 L 299.00 487.10 L 298.20 487.70 L 295.00 489.00 L 288.30 491.10 L 285.60 492.60 L 283.40 494.40 L 281.60 496.60 L 280.20 499.10 L 279.20 502.10 L 277.10 519.90 L 276.70 521.50 L 274.40 525.90 L 272.30 525.70 Z" fill="#000000" fill-rule="nonzero" node-id="108" stroke="none" target-height="73.900024" target-width="52.5" target-x="248.5" target-y="452"></path><path d="M 693.50 444.90 L 692.20 439.10 L 692.40 425.60 L 692.10 421.90 L 691.20 418.90 L 690.00 416.30 L 688.30 414.20 L 686.20 412.40 L 683.60 411.10 L 680.60 410.20 L 676.90 409.80 L 672.40 409.70 L 670.70 409.00 L 669.60 407.80 L 670.00 406.20 L 671.30 404.80 L 675.30 402.80 L 682.50 399.80 L 684.90 398.20 L 686.70 396.40 L 688.00 394.20 L 688.90 391.90 L 689.50 389.10 L 689.70 385.80 L 689.10 377.00 L 689.20 375.40 L 690.30 373.20 L 691.80 371.10 L 695.00 373.50 L 695.50 374.40 L 700.20 389.90 L 702.80 394.90 L 704.50 396.80 L 706.40 398.40 L 708.60 399.70 L 714.10 401.30 L 718.80 402.10 L 721.70 403.80 L 718.50 407.10 L 708.80 410.40 L 706.30 411.80 L 704.20 413.60 L 702.60 415.60 L 701.30 418.00 L 700.40 420.70 L 699.80 424.00 L 699.30 433.40 L 698.40 438.60 L 696.00 445.00 L 693.50 444.90 Z" fill="#000000" fill-rule="nonzero" node-id="110" stroke="none" target-height="73.899994" target-width="52.100037" target-x="669.6" target-y="371.1"></path><path d="M 539.00 428.40 L 539.20 435.20 L 539.90 438.60 L 541.50 443.70 L 545.00 451.70 L 545.70 454.50 L 545.90 457.10 L 545.80 459.80 L 545.20 462.30 L 544.30 464.60 L 543.00 466.70 L 541.40 468.50 L 539.40 470.10 L 537.20 471.40 L 534.70 472.20 L 531.90 472.70 L 529.60 472.70 L 525.60 471.80 L 522.20 469.70 L 519.80 466.60 L 518.70 462.70 L 518.80 461.40 L 520.50 457.40 L 523.50 459.50 L 527.80 464.80 L 529.20 465.70 L 530.80 466.20 L 532.50 466.10 L 534.50 465.30 L 536.00 464.50 L 538.10 462.20 L 539.20 459.30 L 539.20 456.00 L 538.70 454.30 L 535.70 448.40 L 534.20 444.40 L 533.10 440.20 L 532.10 431.60 L 532.20 425.40 L 532.50 423.70 L 535.20 418.90 L 536.60 417.90 L 537.80 418.10 L 538.90 419.10 L 539.10 420.20 L 539.00 428.40 Z" fill="#000000" fill-rule="nonzero" node-id="112" stroke="none" target-height="54.80002" target-width="27.200012" target-x="518.7" target-y="417.9"></path><path d="M 518.20 495.10 L 515.40 494.50 L 512.90 493.50 L 510.60 492.20 L 508.50 490.50 L 506.80 488.60 L 505.50 486.50 L 504.50 484.10 L 504.00 481.60 L 504.30 478.30 L 505.90 476.00 L 508.20 477.60 L 510.50 482.10 L 513.30 486.20 L 515.70 487.90 L 518.70 488.30 L 520.60 488.00 L 523.50 487.10 L 530.30 484.30 L 535.20 484.00 L 533.80 488.00 L 532.80 489.20 L 518.20 495.10 Z" fill="#000000" fill-rule="nonzero" node-id="114" stroke="none" target-height="19.100006" target-width="31.200012" target-x="504" target-y="476"></path><path d="M 509.20 430.20 L 506.10 437.80 L 504.30 440.80 L 502.00 442.10 L 501.10 442.10 L 498.70 440.80 L 497.70 439.80 L 497.30 438.80 L 497.20 436.20 L 497.50 431.10 L 498.80 427.70 L 500.80 425.70 L 503.20 424.40 L 504.20 424.30 L 505.00 424.60 L 505.90 425.40 L 509.20 430.20 Z" fill="#000000" fill-rule="nonzero" node-id="116" stroke="none" target-height="17.800018" target-width="12" target-x="497.2" target-y="424.3"></path><path d="M 299.40 315.60 L 299.10 317.50 L 298.40 319.10 L 297.30 320.60 L 295.90 321.70 L 294.20 322.40 L 292.40 322.70 L 290.50 322.50 L 288.90 321.80 L 287.60 320.70 L 286.60 319.40 L 285.90 317.70 L 285.70 315.70 L 286.00 313.60 L 286.60 312.00 L 287.60 310.60 L 289.00 309.60 L 290.60 308.90 L 292.50 308.70 L 294.40 308.90 L 296.00 309.60 L 297.40 310.70 L 298.50 312.10 L 299.10 313.70 L 299.40 315.60 Z" fill="#000000" fill-rule="nonzero" node-id="118" stroke="none" target-height="14" target-width="13.699982" target-x="285.7" target-y="308.7"></path><path d="M 400.40 197.90 L 400.10 200.00 L 399.40 201.70 L 398.30 203.10 L 396.80 204.20 L 395.10 204.80 L 393.10 205.00 L 391.30 204.70 L 389.80 204.00 L 388.60 202.90 L 387.70 201.50 L 387.20 199.90 L 387.00 198.00 L 387.30 196.00 L 388.00 194.30 L 389.10 193.00 L 390.50 191.90 L 392.10 191.30 L 394.00 191.10 L 395.80 191.40 L 397.30 192.10 L 398.60 193.10 L 399.60 194.50 L 400.20 196.10 L 400.40 197.90 Z" fill="#000000" fill-rule="nonzero" node-id="120" stroke="none" target-height="13.899994" target-width="13.399994" target-x="387" target-y="191.1"></path><path d="M 759.10 333.20 L 758.90 335.10 L 758.30 336.80 L 757.20 338.20 L 755.90 339.20 L 754.30 339.90 L 752.40 340.20 L 750.50 339.90 L 749.00 339.30 L 747.70 338.30 L 746.70 337.00 L 746.00 335.50 L 745.80 333.60 L 746.00 331.70 L 746.60 330.00 L 747.70 328.50 L 749.10 327.40 L 750.70 326.70 L 752.50 326.40 L 754.20 326.60 L 755.70 327.30 L 757.10 328.40 L 758.10 329.80 L 758.80 331.40 L 759.10 333.20 Z" fill="#000000" fill-rule="nonzero" node-id="122" stroke="none" target-height="13.800018" target-width="13.299988" target-x="745.8" target-y="326.4"></path><path d="M 480.90 459.30 L 481.30 457.40 L 482.30 455.40 L 483.70 453.40 L 487.30 450.00 L 489.20 448.90 L 491.00 448.30 L 492.50 448.40 L 493.30 448.80 L 495.90 451.50 L 496.30 452.40 L 496.30 452.90 L 495.30 455.00 L 492.30 458.70 L 490.60 460.20 L 489.20 460.80 L 487.30 461.00 L 483.60 460.90 L 482.80 460.70 L 480.90 459.30 Z" fill="#000000" fill-rule="nonzero" node-id="124" stroke="none" target-height="12.700012" target-width="15.399994" target-x="480.9" target-y="448.3"></path><path d="M 420.50 438.80 L 413.60 447.00 L 413.00 447.20 L 409.70 446.70 L 410.10 443.90 L 411.90 441.90 L 412.40 440.80 L 412.40 439.60 L 409.80 434.90 L 409.20 431.30 L 413.60 431.00 L 414.60 431.40 L 416.00 432.80 L 420.40 438.80 Z" fill="#000000" fill-rule="nonzero" node-id="126" stroke="none" target-height="16.200012" target-width="11.299988" target-x="409.2" target-y="431"></path><path d="M 558.70 426.20 L 552.80 435.60 L 550.60 435.30 L 549.90 434.90 L 548.70 427.00 L 548.90 424.50 L 550.00 422.60 L 554.10 419.10 L 558.70 426.20 Z" fill="#000000" fill-rule="nonzero" node-id="128" stroke="none" target-height="16.5" target-width="10" target-x="548.7" target-y="419.1"></path><path d="M 564.10 451.30 L 561.50 451.90 L 556.60 451.30 L 557.10 447.80 L 557.60 446.90 L 559.80 444.20 L 562.60 442.30 L 565.70 441.60 L 567.40 441.70 L 569.30 442.40 L 570.10 445.00 L 569.90 446.70 L 568.90 448.20 L 565.10 452.50 L 564.10 451.30 Z" fill="#000000" fill-rule="nonzero" node-id="130" stroke="none" target-height="10.899994" target-width="13.5" target-x="556.6" target-y="441.6"></path><path d="M 230.00 561.90 L 225.30 566.30 L 224.00 566.90 L 222.60 566.90 L 221.50 566.50 L 220.60 565.70 L 219.80 563.50 L 220.00 562.10 L 220.60 560.70 L 222.90 558.10 L 224.30 557.40 L 224.80 557.40 L 230.00 561.90 Z" fill="#000000" fill-rule="nonzero" node-id="132" stroke="none" target-height="9.5" target-width="10.199997" target-x="219.8" target-y="557.4"></path><path d="M 724.40 536.00 L 721.00 531.10 L 721.00 530.50 L 722.00 529.10 L 726.10 525.30 L 729.50 529.20 L 729.50 529.70 L 728.90 531.10 L 724.40 536.00 Z" fill="#000000" fill-rule="nonzero" node-id="134" stroke="none" target-height="10.700012" target-width="8.5" target-x="721" target-y="525.3"></path><path d="M 471.30 231.70 L 466.10 235.70 L 465.00 236.00 L 463.80 235.50 L 460.30 232.20 L 463.60 228.50 L 464.70 228.00 L 465.80 228.20 L 471.30 231.70 Z" fill="#000000" fill-rule="nonzero" node-id="136" stroke="none" target-height="8" target-width="11" target-x="460.3" target-y="228"></path><path d="M 344.90 433.50 L 339.90 437.00 L 338.80 437.30 L 337.30 436.60 L 335.80 435.20 L 335.30 433.80 L 336.70 431.30 L 337.80 430.20 L 338.90 429.80 L 339.90 430.00 L 344.90 433.50 Z" fill="#000000" fill-rule="nonzero" node-id="138" stroke="none" target-height="7.5" target-width="9.600006" target-x="335.3" target-y="429.8"></path><path d="M 783.30 432.40 L 787.00 436.90 L 787.30 437.90 L 786.80 439.50 L 785.50 441.00 L 784.10 441.80 L 782.60 441.40 L 780.40 439.40 L 780.20 438.80 L 780.40 437.70 L 783.30 432.40 Z" fill="#000000" fill-rule="nonzero" node-id="140" stroke="none" target-height="9.399994" target-width="7.0999756" target-x="780.2" target-y="432.4"></path><path d="M 197.40 657.80 L 193.20 661.60 L 192.40 661.70 L 191.30 661.20 L 189.20 659.00 L 188.70 657.80 L 189.20 656.50 L 191.50 654.50 L 192.20 654.30 L 193.10 654.50 L 197.40 657.80 Z" fill="#000000" fill-rule="nonzero" node-id="142" stroke="none" target-height="7.4000244" target-width="8.699997" target-x="188.7" target-y="654.3"></path><path d="M 365.70 872.00 L 362.50 868.00 L 362.40 867.20 L 362.80 866.10 L 365.80 863.20 L 369.00 865.90 L 369.40 866.80 L 369.10 867.80 L 365.70 872.00 Z" fill="#000000" fill-rule="nonzero" node-id="144" stroke="none" target-height="8.799988" target-width="7" target-x="362.4" target-y="863.2"></path><path d="M 340.90 514.70 L 336.20 519.10 L 333.20 516.10 L 332.90 515.20 L 333.40 513.70 L 334.70 512.30 L 336.20 511.40 L 336.90 511.60 L 340.90 514.70 Z" fill="#000000" fill-rule="nonzero" node-id="146" stroke="none" target-height="7.6999817" target-width="8" target-x="332.9" target-y="511.4"></path><path d="M 858.00 848.20 L 853.40 851.70 L 852.50 851.80 L 850.40 850.40 L 849.20 848.10 L 849.70 846.80 L 850.90 845.50 L 852.30 844.90 L 853.30 845.10 L 858.00 848.20 Z" fill="#000000" fill-rule="nonzero" node-id="148" stroke="none" target-height="6.8999634" target-width="8.799988" target-x="849.2" target-y="844.9"></path><path d="M 229.00 605.60 L 224.10 608.80 L 223.10 609.00 L 222.20 608.70 L 219.30 605.90 L 222.10 602.60 L 223.00 602.20 L 224.00 602.40 L 229.00 605.60 Z" fill="#000000" fill-rule="nonzero" node-id="150" stroke="none" target-height="6.799988" target-width="9.699997" target-x="219.3" target-y="602.2"></path><path d="M 259.60 554.20 L 255.70 557.50 L 254.80 557.80 L 253.90 557.50 L 251.00 555.00 L 253.50 551.70 L 254.50 551.20 L 255.20 551.30 L 259.60 554.20 Z" fill="#000000" fill-rule="nonzero" node-id="152" stroke="none" target-height="6.5999756" target-width="8.600006" target-x="251" target-y="551.2"></path><path d="M 664.70 471.60 L 660.00 474.60 L 659.00 474.80 L 658.20 474.50 L 655.50 471.60 L 657.50 469.60 L 659.60 468.30 L 660.40 468.40 L 664.70 471.70 Z" fill="#000000" fill-rule="nonzero" node-id="154" stroke="none" target-height="6.5" target-width="9.200012" target-x="655.5" target-y="468.3"></path><path d="M 810.00 577.80 L 813.60 581.90 L 813.70 582.70 L 813.30 583.70 L 810.40 586.80 L 807.30 584.30 L 807.00 583.50 L 807.20 582.40 L 810.00 577.80 Z" fill="#000000" fill-rule="nonzero" node-id="156" stroke="none" target-height="9" target-width="6.700012" target-x="807" target-y="577.8"></path><path d="M 291.60 820.00 L 287.00 822.80 L 285.90 823.00 L 284.60 822.20 L 283.40 820.70 L 283.00 819.50 L 284.50 817.30 L 286.80 816.10 L 287.60 816.30 L 291.60 820.00 Z" fill="#000000" fill-rule="nonzero" node-id="158" stroke="none" target-height="6.9000244" target-width="8.600006" target-x="283" target-y="816.1"></path><path d="M 242.90 372.20 L 240.40 367.70 L 240.30 366.80 L 240.80 365.90 L 243.70 363.40 L 246.30 366.40 L 246.60 367.30 L 246.30 368.20 L 242.90 372.20 Z" fill="#000000" fill-rule="nonzero" node-id="160" stroke="none" target-height="8.800018" target-width="6.300003" target-x="240.3" target-y="363.4"></path><path d="M 394.30 237.30 L 390.50 240.50 L 389.60 240.80 L 388.10 240.20 L 386.70 239.00 L 386.20 237.90 L 387.40 235.60 L 388.40 234.70 L 389.40 234.20 L 390.20 234.30 L 394.30 237.30 Z" fill="#000000" fill-rule="nonzero" node-id="162" stroke="none" target-height="6.600006" target-width="8.099976" target-x="386.2" target-y="234.2"></path><path d="M 636.00 520.90 L 632.10 524.30 L 630.50 524.40 L 628.40 522.70 L 627.80 521.40 L 628.30 520.10 L 629.50 518.70 L 630.90 518.00 L 631.80 518.10 L 636.00 520.90 Z" fill="#000000" fill-rule="nonzero" node-id="164" stroke="none" target-height="6.4000244" target-width="8.200012" target-x="627.8" target-y="518"></path><path d="M 767.90 549.80 L 770.80 553.40 L 770.90 554.00 L 770.40 555.10 L 767.70 557.90 L 764.90 555.30 L 764.50 554.40 L 764.80 553.60 L 767.90 549.80 Z" fill="#000000" fill-rule="nonzero" node-id="166" stroke="none" target-height="8.100037" target-width="6.4000244" target-x="764.5" target-y="549.8"></path><path d="M 232.70 458.10 L 235.80 461.90 L 236.00 462.80 L 235.80 463.70 L 233.20 466.70 L 230.10 464.00 L 229.50 463.10 L 229.70 462.20 L 232.70 458.10 Z" fill="#000000" fill-rule="nonzero" node-id="168" stroke="none" target-height="8.600006" target-width="6.5" target-x="229.5" target-y="458.1"></path><path d="M 649.20 437.40 L 645.90 433.40 L 645.60 432.50 L 645.90 431.50 L 648.60 428.60 L 651.50 431.20 L 652.00 432.10 L 651.90 433.00 L 649.20 437.40 Z" fill="#000000" fill-rule="nonzero" node-id="170" stroke="none" target-height="8.799988" target-width="6.4000244" target-x="645.6" target-y="428.6"></path><path d="M 833.40 465.90 L 829.30 469.20 L 828.30 469.40 L 827.50 469.10 L 826.50 468.20 L 825.30 466.00 L 825.70 464.90 L 827.70 463.20 L 829.20 463.20 L 833.40 465.90 Z" fill="#000000" fill-rule="nonzero" node-id="172" stroke="none" target-height="6.1999817" target-width="8.100037" target-x="825.3" target-y="463.2"></path><path d="M 523.20 907.90 L 519.20 910.60 L 518.20 910.80 L 517.00 910.20 L 515.80 908.90 L 515.40 907.90 L 516.80 905.90 L 518.80 904.60 L 519.50 904.80 L 523.20 907.90 Z" fill="#000000" fill-rule="nonzero" node-id="174" stroke="none" target-height="6.200012" target-width="7.799988" target-x="515.4" target-y="904.6"></path><path d="M 793.40 366.20 L 789.20 368.80 L 788.20 368.90 L 787.00 368.20 L 785.90 366.90 L 785.50 365.90 L 787.00 363.90 L 789.10 362.70 L 790.80 363.70 L 793.40 366.20 Z" fill="#000000" fill-rule="nonzero" node-id="176" stroke="none" target-height="6.1999817" target-width="7.9000244" target-x="785.5" target-y="362.7"></path><path d="M 874.20 724.90 L 871.40 721.40 L 871.20 720.60 L 871.60 719.70 L 874.10 717.00 L 876.80 719.70 L 877.20 720.60 L 877.00 721.30 L 874.20 724.90 Z" fill="#000000" fill-rule="nonzero" node-id="178" stroke="none" target-height="7.9000244" target-width="6" target-x="871.2" target-y="717"></path><path d="M 730.50 474.70 L 727.90 470.80 L 727.80 470.10 L 728.40 469.10 L 731.20 466.50 L 733.90 469.20 L 734.20 470.10 L 733.90 471.00 L 730.50 474.70 Z" fill="#000000" fill-rule="nonzero" node-id="180" stroke="none" target-height="8.200012" target-width="6.4000244" target-x="727.8" target-y="466.5"></path><path d="M 858.50 510.50 L 855.40 512.50 L 854.40 512.70 L 853.40 512.10 L 852.40 510.70 L 852.10 509.50 L 852.60 508.50 L 854.40 506.70 L 855.40 506.40 L 856.40 506.40 L 859.80 507.90 L 858.50 510.50 Z" fill="#000000" fill-rule="nonzero" node-id="182" stroke="none" target-height="6.3000183" target-width="7.700012" target-x="852.1" target-y="506.4"></path><path d="M 661.70 887.30 L 658.90 882.90 L 658.70 881.90 L 659.30 880.80 L 660.60 879.70 L 661.80 879.20 L 663.10 879.70 L 664.60 881.50 L 664.50 883.10 L 661.70 887.30 Z" fill="#000000" fill-rule="nonzero" node-id="184" stroke="none" target-height="8.099976" target-width="5.8999634" target-x="658.7" target-y="879.2"></path><path d="M 499.70 253.10 L 496.50 254.80 L 495.50 254.90 L 494.40 254.20 L 493.30 252.80 L 493.10 251.70 L 493.70 250.70 L 495.60 249.10 L 496.70 248.70 L 497.70 248.80 L 501.20 250.30 L 499.70 253.10 Z" fill="#000000" fill-rule="nonzero" node-id="186" stroke="none" target-height="6.199997" target-width="8.100006" target-x="493.1" target-y="248.7"></path><path d="M 655.60 250.80 L 653.30 246.90 L 653.20 246.10 L 653.60 245.30 L 656.10 243.00 L 658.50 245.50 L 658.80 246.30 L 658.50 247.10 L 655.60 250.80 Z" fill="#000000" fill-rule="nonzero" node-id="188" stroke="none" target-height="7.800003" target-width="5.5999756" target-x="653.2" target-y="243"></path><path d="M 303.40 241.30 L 299.40 243.60 L 298.60 243.70 L 297.80 243.30 L 295.60 240.70 L 298.20 238.40 L 299.00 238.10 L 299.80 238.30 L 303.40 241.30 Z" fill="#000000" fill-rule="nonzero" node-id="190" stroke="none" target-height="5.599991" target-width="7.799988" target-x="295.6" target-y="238.1"></path><path d="M 877.20 808.10 L 880.00 812.10 L 880.10 812.80 L 879.60 813.70 L 878.80 814.70 L 876.70 815.90 L 875.70 815.40 L 874.50 814.20 L 874.00 812.90 L 874.30 812.00 L 877.20 808.10 Z" fill="#000000" fill-rule="nonzero" node-id="192" stroke="none" target-height="7.800049" target-width="6.0999756" target-x="874" target-y="808.1"></path><path d="M 589.90 232.60 L 586.40 235.30 L 585.50 235.50 L 584.40 235.00 L 583.40 233.80 L 583.00 232.70 L 584.00 230.70 L 584.90 229.90 L 585.70 229.50 L 586.50 229.70 L 589.90 232.60 Z" fill="#000000" fill-rule="nonzero" node-id="194" stroke="none" target-height="6" target-width="6.9000244" target-x="583" target-y="229.5"></path><path d="M 223.70 508.20 L 220.30 509.80 L 219.30 509.90 L 217.90 509.40 L 216.70 508.30 L 216.20 507.20 L 216.40 506.30 L 217.00 505.20 L 218.70 503.80 L 219.40 503.80 L 222.40 505.80 L 223.70 508.20 Z" fill="#000000" fill-rule="nonzero" node-id="196" stroke="none" target-height="6.100006" target-width="7.5" target-x="216.2" target-y="503.8"></path><path d="M 497.90 185.70 L 495.90 182.70 L 495.20 180.90 L 495.80 180.00 L 498.60 177.60 L 500.80 179.90 L 501.00 180.50 L 500.70 181.50 L 497.90 185.70 Z" fill="#000000" fill-rule="nonzero" node-id="198" stroke="none" target-height="8.099991" target-width="5.799988" target-x="495.2" target-y="177.6"></path><path d="M 763.30 514.10 L 759.60 516.60 L 758.80 516.80 L 757.60 516.10 L 756.50 515.00 L 756.10 513.80 L 757.10 511.90 L 758.10 511.10 L 759.00 510.80 L 759.80 511.00 L 763.30 514.10 Z" fill="#000000" fill-rule="nonzero" node-id="200" stroke="none" target-height="6" target-width="7.200012" target-x="756.1" target-y="510.8"></path><path d="M 595.30 887.80 L 591.50 890.50 L 590.70 890.60 L 589.90 890.30 L 589.10 889.50 L 588.20 887.50 L 588.60 886.50 L 590.30 885.20 L 591.70 885.30 L 595.30 887.80 Z" fill="#000000" fill-rule="nonzero" node-id="202" stroke="none" target-height="5.3999634" target-width="7.0999756" target-x="588.2" target-y="885.2"></path><path d="M 435.30 895.30 L 432.00 898.30 L 431.30 898.60 L 430.50 898.20 L 428.10 895.60 L 430.60 893.10 L 431.50 892.70 L 432.00 892.80 L 435.30 895.30 Z" fill="#000000" fill-rule="nonzero" node-id="204" stroke="none" target-height="5.8999634" target-width="7.1999817" target-x="428.1" target-y="892.7"></path><path d="M 278.10 602.20 L 275.40 598.90 L 275.20 598.20 L 275.50 597.50 L 277.60 595.10 L 280.00 597.20 L 280.40 597.90 L 280.30 598.70 L 278.10 602.20 Z" fill="#000000" fill-rule="nonzero" node-id="206" stroke="none" target-height="7.1000366" target-width="5.1999817" target-x="275.2" target-y="595.1"></path><path d="M 231.20 500.00 L 228.00 502.80 L 227.50 502.90 L 226.60 502.40 L 224.30 499.90 L 226.60 497.60 L 227.40 497.30 L 228.10 497.50 L 231.20 500.00 Z" fill="#000000" fill-rule="nonzero" node-id="208" stroke="none" target-height="5.600006" target-width="6.899994" target-x="224.3" target-y="497.3"></path><path d="M 733.80 269.40 L 730.60 271.60 L 730.10 271.70 L 729.20 271.10 L 727.20 268.40 L 729.20 266.40 L 730.50 266.80 L 733.80 269.40 Z" fill="#000000" fill-rule="nonzero" node-id="210" stroke="none" target-height="5.3000183" target-width="6.5999756" target-x="727.2" target-y="266.4"></path><path d="M 664.20 172.00 L 660.40 174.70 L 659.50 175.00 L 659.00 174.90 L 657.10 172.80 L 659.20 170.60 L 660.60 170.20 L 664.20 172.00 Z" fill="#000000" fill-rule="nonzero" node-id="212" stroke="none" target-height="4.800003" target-width="7.1000366" target-x="657.1" target-y="170.2"></path><path d="M 180.00 717.60 L 182.20 721.10 L 182.30 721.80 L 181.90 722.50 L 181.10 723.20 L 179.30 724.00 L 178.50 723.50 L 177.30 721.90 L 177.50 720.70 L 180.00 717.60 Z" fill="#000000" fill-rule="nonzero" node-id="214" stroke="none" target-height="6.4000244" target-width="5" target-x="177.3" target-y="717.6"></path><path d="M 793.20 661.60 L 793.20 685.20 L 795.30 792.10 L 794.90 796.00 L 794.20 797.40 L 793.10 798.50 L 791.50 799.20 L 789.10 799.80 L 738.10 809.20 L 519.30 850.70 L 519.60 701.20 L 519.70 696.80 L 520.00 695.30 L 520.60 694.40 L 521.40 693.80 L 527.30 692.80 L 793.20 661.70 Z M 630.10 713.80 L 630.10 721.00 L 630.60 722.20 L 631.30 723.00 L 633.50 723.70 L 686.80 717.30 L 694.90 716.00 L 696.80 715.30 L 698.90 713.70 L 699.90 711.10 L 700.00 709.10 L 699.00 698.50 L 697.70 696.00 L 696.70 695.30 L 695.20 694.90 L 634.70 702.20 L 632.70 702.60 L 631.30 703.40 L 630.40 704.40 L 629.80 705.60 L 629.50 707.20 L 630.10 713.80 Z M 596.00 734.70 L 592.00 731.60 L 591.10 731.40 L 589.10 732.60 L 587.90 734.60 L 588.40 735.90 L 589.60 737.20 L 591.00 737.80 L 591.90 737.60 L 596.00 734.70 Z M 566.70 749.40 L 564.00 747.20 L 562.20 746.30 L 560.20 747.60 L 559.00 749.70 L 559.40 750.80 L 560.60 752.10 L 561.80 752.60 L 562.80 752.30 L 566.70 749.40 Z M 739.10 724.50 L 736.30 728.30 L 736.20 729.10 L 736.60 730.00 L 739.30 732.60 L 742.00 730.10 L 742.30 729.30 L 742.00 728.40 L 739.10 724.50 Z M 688.50 774.40 L 685.80 777.90 L 685.60 778.80 L 686.00 779.50 L 688.80 781.80 L 691.10 779.00 L 691.40 778.10 L 691.20 777.50 L 688.50 774.40 Z" fill="#ffffff" fill-rule="nonzero" node-id="216" stroke="none" target-height="189.10004" target-width="276" target-x="519.3" target-y="661.6"></path><path d="M 545.40 521.80 L 564.70 533.00 L 583.80 544.70 L 602.50 556.90 L 630.10 576.20 L 657.40 597.00 L 647.20 598.00 L 580.90 603.00 L 575.70 603.80 L 570.50 605.40 L 568.80 606.60 L 567.50 608.20 L 566.50 610.50 L 564.70 617.60 L 541.70 618.90 L 530.20 619.20 L 527.10 618.80 L 525.10 616.60 L 523.60 615.60 L 520.10 614.80 L 452.20 622.00 L 446.50 621.30 L 443.80 620.40 L 441.20 619.20 L 435.70 615.20 L 432.60 613.40 L 429.30 612.10 L 426.10 611.30 L 421.60 610.80 L 416.90 610.80 L 412.10 611.40 L 407.50 612.50 L 403.10 614.00 L 399.00 616.00 L 395.10 618.50 L 391.40 621.40 L 385.80 626.60 L 383.60 627.90 L 381.20 628.70 L 347.50 630.90 L 343.70 631.30 L 341.40 632.00 L 340.20 632.70 L 339.30 633.70 L 338.60 634.90 L 338.10 637.20 L 337.70 648.30 L 337.20 650.90 L 336.30 652.50 L 334.90 653.90 L 332.60 655.10 L 280.90 673.50 L 278.80 674.50 L 272.60 678.10 L 273.20 680.00 L 278.40 679.00 L 365.00 652.00 L 366.30 652.30 L 360.70 662.80 L 358.30 668.30 L 356.60 673.70 L 355.50 679.10 L 354.90 684.50 L 355.00 689.90 L 355.70 695.40 L 357.00 701.00 L 359.00 706.70 L 360.60 710.00 L 362.40 713.00 L 365.50 716.30 L 369.60 718.80 L 375.00 720.50 L 365.00 724.70 L 339.70 734.60 L 327.00 739.30 L 305.50 746.20 L 288.00 750.50 L 281.20 751.70 L 269.70 752.80 L 260.80 752.40 L 256.40 751.50 L 252.40 750.20 L 248.70 748.60 L 245.30 746.50 L 242.10 744.10 L 239.30 741.30 L 236.80 738.30 L 234.70 734.90 L 232.90 731.40 L 231.50 727.60 L 230.50 723.60 L 229.80 719.40 L 229.60 715.10 L 229.80 710.80 L 230.50 706.30 L 231.60 701.60 L 234.10 694.50 L 237.00 687.60 L 240.50 681.00 L 244.30 674.60 L 252.70 662.20 L 260.60 651.30 L 277.20 630.30 L 290.10 615.00 L 329.70 569.70 L 336.00 562.70 L 342.40 556.10 L 349.20 550.00 L 356.10 544.20 L 363.40 538.80 L 370.90 533.80 L 397.70 518.30 L 401.90 531.90 L 404.20 537.40 L 406.80 542.60 L 409.80 547.50 L 413.20 552.20 L 416.90 556.50 L 420.80 560.40 L 425.10 564.00 L 429.70 567.30 L 434.50 570.20 L 439.60 572.70 L 444.90 574.80 L 450.40 576.50 L 456.10 577.70 L 462.00 578.60 L 474.40 579.10 L 486.40 578.30 L 492.30 577.30 L 498.20 575.80 L 504.00 573.80 L 509.90 571.00 L 515.30 567.90 L 520.20 564.50 L 524.60 560.70 L 528.60 556.50 L 532.10 552.00 L 535.40 547.20 L 538.30 542.00 L 540.80 536.30 L 543.00 530.30 L 545.50 521.80 Z M 378.60 586.30 L 373.80 582.10 L 372.60 581.60 L 371.80 581.70 L 370.00 582.80 L 368.60 584.50 L 368.40 585.10 L 369.60 587.90 L 371.10 589.40 L 371.90 589.70 L 373.10 589.50 L 378.60 586.30 Z M 578.30 579.30 L 573.60 576.40 L 572.60 576.20 L 571.00 577.00 L 569.70 578.30 L 569.10 579.70 L 569.70 581.30 L 571.80 583.30 L 572.40 583.40 L 573.50 583.00 L 578.30 579.30 Z M 283.60 699.60 L 281.80 698.30 L 276.20 704.70 L 275.90 707.70 L 278.70 707.30 L 279.20 707.00 L 283.60 699.60 Z M 327.60 611.80 L 325.80 610.60 L 320.00 618.00 L 320.00 619.20 L 320.50 620.50 L 321.60 620.50 L 322.60 620.10 L 327.60 611.80 Z M 590.30 585.70 L 587.30 589.50 L 587.20 590.30 L 587.50 591.20 L 590.00 594.00 L 592.70 591.70 L 593.00 590.90 L 592.80 589.90 L 590.30 585.70 Z M 389.10 600.70 L 392.10 597.40 L 392.40 596.60 L 392.10 595.90 L 389.60 593.30 L 387.10 595.70 L 386.70 596.60 L 386.70 597.30 L 389.10 600.70 Z M 314.40 627.90 L 312.00 626.60 L 307.90 633.90 L 310.10 635.20 L 314.40 627.90 Z" fill="#ffffff" fill-rule="nonzero" node-id="218" stroke="none" target-height="234.5" target-width="427.80002" target-x="229.6" target-y="518.3"></path><path d="M 474.00 854.70 L 354.50 804.00 L 351.20 802.40 L 348.70 800.70 L 347.30 799.40 L 345.50 796.10 L 344.70 792.00 L 345.70 765.40 L 346.00 741.40 L 346.20 739.60 L 346.80 738.40 L 349.30 736.80 L 414.60 708.50 L 417.40 706.30 L 418.60 703.50 L 415.50 702.90 L 414.60 702.90 L 386.80 712.50 L 382.70 713.50 L 379.30 713.90 L 376.50 713.80 L 373.80 713.10 L 371.50 712.00 L 369.40 710.20 L 367.60 708.00 L 365.90 705.10 L 364.30 701.20 L 362.70 696.30 L 361.60 691.50 L 361.20 686.80 L 361.30 682.10 L 361.90 677.40 L 363.00 672.70 L 364.70 667.90 L 367.10 662.90 L 368.00 665.50 L 369.90 667.90 L 371.80 665.90 L 375.10 657.00 L 378.00 650.30 L 381.30 643.90 L 383.70 639.80 L 389.40 632.20 L 392.70 628.70 L 396.30 625.50 L 403.50 620.80 L 409.90 618.10 L 413.20 617.30 L 416.60 616.90 L 420.20 617.00 L 424.90 618.00 L 429.50 619.60 L 429.50 621.10 L 424.10 624.10 L 401.00 638.60 L 400.10 639.60 L 398.30 644.30 L 403.20 643.90 L 404.60 643.40 L 424.30 632.00 L 431.10 628.50 L 433.80 627.50 L 436.90 627.20 L 443.10 627.20 L 444.50 627.80 L 445.90 629.20 L 446.70 630.80 L 446.60 631.70 L 445.30 634.00 L 444.40 634.70 L 433.10 641.10 L 412.70 655.50 L 412.00 656.30 L 410.60 659.80 L 415.20 660.30 L 416.30 659.90 L 440.70 644.30 L 447.10 641.40 L 450.40 641.00 L 451.90 641.30 L 453.50 642.20 L 458.00 646.00 L 453.30 650.20 L 426.70 669.60 L 425.50 671.10 L 424.70 673.20 L 424.80 674.80 L 425.80 675.90 L 426.70 676.30 L 428.90 675.80 L 456.30 656.60 L 460.30 654.60 L 463.70 653.80 L 466.70 654.30 L 468.00 655.20 L 469.20 656.60 L 470.00 658.30 L 470.20 659.80 L 469.90 661.30 L 468.20 663.80 L 464.80 666.70 L 457.60 671.40 L 437.10 688.10 L 436.40 689.00 L 435.50 693.10 L 439.80 693.00 L 441.00 692.50 L 456.00 680.50 L 458.70 679.60 L 460.90 679.70 L 463.50 680.40 L 467.80 682.30 L 470.60 684.80 L 472.40 688.00 L 473.10 690.90 L 473.40 694.80 L 474.30 849.60 L 474.00 854.70 Z" fill="#ffffff" fill-rule="nonzero" node-id="220" stroke="none" target-height="237.79999" target-width="129.59998" target-x="344.7" target-y="616.9"></path><path d="M 708.00 577.90 L 701.80 584.90 L 699.00 589.20 L 696.70 595.50 L 696.80 596.40 L 698.30 599.70 L 701.60 598.00 L 702.50 597.20 L 708.70 587.50 L 711.10 584.60 L 713.10 582.90 L 716.70 581.10 L 718.40 580.90 L 720.70 581.10 L 723.00 581.90 L 725.40 583.40 L 718.10 595.60 L 717.90 596.70 L 719.40 601.10 L 723.80 597.70 L 727.80 591.80 L 729.30 590.10 L 731.30 588.40 L 733.20 587.40 L 735.00 586.80 L 736.80 586.60 L 740.60 587.60 L 744.60 590.40 L 742.10 595.50 L 740.90 599.30 L 740.50 602.00 L 740.90 604.00 L 741.70 605.50 L 746.90 598.40 L 752.30 594.50 L 755.30 599.10 L 755.80 600.70 L 757.80 617.10 L 633.90 627.50 L 630.70 629.00 L 629.60 630.20 L 628.60 631.90 L 624.20 647.50 L 622.40 650.30 L 621.80 650.60 L 604.00 652.20 L 612.00 630.00 L 612.10 628.90 L 611.60 625.20 L 607.80 627.10 L 607.00 627.90 L 597.40 650.50 L 596.10 652.10 L 594.80 653.20 L 593.20 653.80 L 591.00 654.00 L 585.10 653.50 L 591.50 624.80 L 592.60 623.20 L 595.60 621.40 L 618.30 618.40 L 640.10 616.10 L 732.70 608.90 L 737.50 608.00 L 737.30 605.90 L 736.80 604.60 L 736.10 603.80 L 733.70 603.00 L 732.10 603.10 L 612.10 613.10 L 591.90 615.80 L 588.80 616.80 L 587.80 617.60 L 586.70 619.20 L 585.90 621.50 L 578.60 652.70 L 568.80 643.20 L 571.30 623.60 L 572.60 615.40 L 573.40 613.20 L 574.30 611.70 L 575.70 610.70 L 577.80 609.90 L 584.30 609.00 L 608.10 606.80 L 651.50 603.70 L 673.80 602.80 L 676.20 602.20 L 678.20 601.30 L 681.60 598.50 L 684.60 594.00 L 689.30 584.30 L 691.40 581.10 L 693.80 578.30 L 695.60 576.80 L 697.20 575.80 L 700.50 575.10 L 702.70 575.40 L 705.20 576.30 L 708.00 577.90 Z" fill="#ffffff" fill-rule="nonzero" node-id="222" stroke="none" target-height="78.900024" target-width="189" target-x="568.8" target-y="575.1"></path><path d="M 771.20 634.90 L 775.40 634.90 L 817.40 643.90 L 818.90 644.40 L 820.90 645.70 L 821.90 647.80 L 823.30 819.10 L 810.80 808.50 L 810.00 806.90 L 809.80 804.90 L 808.70 649.20 L 807.60 646.00 L 806.60 645.00 L 805.10 644.10 L 776.30 638.00 L 770.90 636.60 L 771.20 634.90 Z" fill="#ffffff" fill-rule="nonzero" node-id="224" stroke="none" target-height="184.19995" target-width="52.399963" target-x="770.9" target-y="634.9"></path><path d="M 629.80 649.40 L 632.90 639.00 L 634.20 635.90 L 635.20 634.60 L 636.70 633.40 L 638.40 632.50 L 640.00 632.10 L 764.10 623.20 L 767.40 623.30 L 764.50 635.40 L 763.20 636.30 L 761.10 636.80 L 629.80 649.40 Z" fill="#ffffff" fill-rule="nonzero" node-id="226" stroke="none" target-height="26.200012" target-width="137.60004" target-x="629.8" target-y="623.2"></path><path d="M 537.30 521.10 L 535.50 528.00 L 533.20 534.40 L 530.50 540.20 L 528.10 544.40 L 525.40 548.30 L 522.40 552.00 L 519.10 555.30 L 515.50 558.40 L 511.50 561.10 L 507.10 563.60 L 502.30 565.80 L 491.80 569.20 L 486.10 570.40 L 480.30 571.20 L 474.40 571.60 L 468.40 571.60 L 462.30 571.10 L 456.30 570.10 L 450.30 568.60 L 444.50 566.50 L 438.80 563.90 L 433.20 560.60 L 425.40 554.60 L 418.10 546.90 L 412.60 538.90 L 408.50 530.30 L 405.70 521.10 L 405.30 518.40 L 405.50 516.20 L 406.30 514.20 L 407.50 512.50 L 409.40 511.00 L 412.00 509.70 L 415.20 519.90 L 417.50 525.60 L 420.00 530.90 L 422.90 535.70 L 426.30 540.40 L 430.00 544.50 L 434.00 548.30 L 438.50 551.60 L 442.30 553.90 L 446.40 555.90 L 450.80 557.60 L 455.60 559.00 L 460.80 560.10 L 467.40 561.00 L 473.60 561.40 L 479.60 561.30 L 485.30 560.70 L 490.90 559.50 L 496.30 557.80 L 501.50 555.50 L 506.40 552.60 L 510.10 550.00 L 513.60 546.90 L 517.10 543.30 L 520.40 539.20 L 525.50 531.80 L 527.50 526.30 L 528.70 524.40 L 530.30 523.00 L 532.10 522.10 L 534.40 521.40 L 537.30 521.20 Z" fill="#ffffff" fill-rule="nonzero" node-id="228" stroke="none" target-height="61.899963" target-width="132" target-x="405.3" target-y="509.7"></path><path d="M 519.40 526.20 L 514.90 534.00 L 509.40 540.40 L 506.30 543.20 L 502.90 545.60 L 499.30 547.60 L 495.20 549.40 L 488.90 551.40 L 482.50 552.70 L 476.30 553.40 L 471.50 553.60 L 462.40 552.80 L 453.70 550.50 L 445.60 546.80 L 441.80 544.50 L 438.20 541.70 L 434.90 538.60 L 431.70 535.20 L 428.80 531.20 L 426.40 527.10 L 424.10 522.60 L 422.20 517.60 L 420.60 512.10 L 419.80 507.40 L 420.60 505.70 L 421.50 505.20 L 426.80 504.10 L 427.70 508.70 L 429.00 513.10 L 430.70 517.20 L 432.80 521.10 L 435.30 524.70 L 441.30 531.50 L 444.80 534.60 L 448.50 537.20 L 452.60 539.40 L 457.20 541.20 L 461.90 542.50 L 466.90 543.50 L 472.00 544.00 L 477.20 544.00 L 482.20 543.70 L 487.00 542.90 L 491.80 541.60 L 496.10 539.80 L 501.80 536.40 L 505.20 533.30 L 507.40 529.70 L 509.70 527.50 L 511.70 526.50 L 514.10 526.10 L 519.40 526.10 Z" fill="#ffffff" fill-rule="nonzero" node-id="230" stroke="none" target-height="49.49997" target-width="99.60004" target-x="419.8" target-y="504.1"></path><path d="M 463.50 643.00 L 498.50 639.10 L 547.90 635.00 L 549.00 635.30 L 550.20 636.60 L 551.00 640.20 L 551.00 641.70 L 550.50 643.00 L 549.60 643.80 L 545.90 644.70 L 493.90 648.90 L 479.70 650.90 L 476.90 650.70 L 474.10 650.10 L 466.40 647.00 L 465.80 646.50 L 463.50 643.00 Z" fill="#ffffff" fill-rule="nonzero" node-id="232" stroke="none" target-height="15.900024" target-width="87.5" target-x="463.5" target-y="635"></path><path d="M 307.00 751.80 L 334.40 742.60 L 334.40 783.30 L 331.50 783.00 L 328.70 782.10 L 325.80 780.60 L 320.50 776.40 L 318.00 773.60 L 313.50 767.20 L 311.50 763.50 L 309.00 757.80 L 307.00 751.80 Z" fill="#ffffff" fill-rule="nonzero" node-id="234" stroke="none" target-height="40.700012" target-width="27.399994" target-x="307" target-y="742.6"></path><path d="M 521.90 630.90 L 464.00 636.60 L 461.80 636.60 L 458.90 636.20 L 454.00 634.10 L 454.60 626.80 L 500.90 622.00 L 512.90 621.10 L 517.00 620.90 L 519.30 621.20 L 520.50 621.70 L 521.30 622.60 L 521.80 623.90 L 522.10 626.40 L 521.90 630.90 Z" fill="#ffffff" fill-rule="nonzero" node-id="236" stroke="none" target-height="15.699951" target-width="68.099976" target-x="454" target-y="620.9"></path><path d="M 500.70 527.90 L 496.50 530.80 L 492.40 533.10 L 488.20 534.70 L 483.80 535.80 L 479.40 536.30 L 474.90 536.40 L 470.40 536.10 L 465.90 535.40 L 457.60 533.20 L 450.90 529.90 L 447.90 527.70 L 444.10 524.40 L 440.90 520.60 L 438.10 516.40 L 436.40 513.00 L 434.00 505.80 L 433.40 502.00 L 438.20 506.80 L 443.10 511.00 L 448.20 514.60 L 453.30 517.70 L 458.80 520.40 L 464.30 522.60 L 470.10 524.40 L 475.90 525.80 L 483.90 527.00 L 492.20 527.70 L 500.70 527.90 Z" fill="#ffffff" fill-rule="nonzero" node-id="238" stroke="none" target-height="34.400024" target-width="67.30002" target-x="433.4" target-y="502"></path><path d="M 832.00 639.80 L 832.70 684.10 L 833.50 817.20 L 833.30 818.10 L 831.70 820.90 L 829.80 820.50 L 829.80 640.00 L 832.00 639.80 Z" fill="#ffffff" fill-rule="nonzero" node-id="240" stroke="none" target-height="181.10004" target-width="3.7000122" target-x="829.8" target-y="639.8"></path><path d="M 475.40 665.80 L 476.90 660.50 L 478.50 658.30 L 480.50 657.10 L 565.20 651.20 L 566.90 651.40 L 568.60 652.00 L 570.50 653.80 L 571.40 655.30 L 475.40 665.80 Z" fill="#ffffff" fill-rule="nonzero" node-id="242" stroke="none" target-height="14.599976" target-width="96.00003" target-x="475.4" target-y="651.2"></path><path d="M 528.70 629.90 L 528.70 624.70 L 563.60 624.70 L 563.90 626.90 L 563.70 628.40 L 563.10 629.40 L 562.10 630.00 L 560.30 630.20 L 552.90 629.00 L 548.50 628.90 L 531.20 630.10 L 528.70 629.90 Z" fill="#ffffff" fill-rule="nonzero" node-id="244" stroke="none" target-height="5.5" target-width="35.200012" target-x="528.7" target-y="624.7"></path><path d="M 485.00 352.90 L 488.50 357.70 L 492.20 361.90 L 496.10 365.50 L 500.30 368.70 L 504.60 371.60 L 509.10 374.10 L 518.50 378.10 L 531.00 381.90 L 538.80 383.70 L 538.60 385.00 L 533.20 384.50 L 528.00 383.80 L 521.30 381.90 L 514.90 379.50 L 508.80 376.70 L 502.90 373.50 L 497.30 369.70 L 491.80 365.50 L 489.30 363.20 L 487.20 360.40 L 486.10 358.40 L 485.40 355.90 L 485.00 352.90 Z" fill="#ffffff" fill-rule="nonzero" node-id="246" stroke="none" target-height="32.100006" target-width="53.799988" target-x="485" target-y="352.9"></path><path d="M 666.80 596.20 L 667.30 587.40 L 675.80 588.70 L 677.10 589.40 L 678.90 591.30 L 677.60 593.90 L 676.60 595.00 L 675.70 595.60 L 673.60 596.00 L 666.80 596.20 Z" fill="#ffffff" fill-rule="nonzero" node-id="248" stroke="none" target-height="8.799988" target-width="12.100037" target-x="666.8" target-y="587.4"></path><path d="M 402.40 313.30 L 393.80 327.50 L 391.50 332.10 L 389.50 336.70 L 384.50 351.40 L 384.30 347.50 L 384.70 344.80 L 385.80 340.80 L 389.40 331.50 L 394.30 322.60 L 396.90 318.80 L 399.80 315.50 L 402.40 313.30 Z" fill="#ffffff" fill-rule="nonzero" node-id="250" stroke="none" target-height="38.100006" target-width="18.100006" target-x="384.3" target-y="313.3"></path><path d="M 363.00 635.10 L 379.60 635.10 L 377.50 638.60 L 376.70 639.30 L 362.60 636.70 L 363.00 635.10 Z" fill="#ffffff" fill-rule="nonzero" node-id="252" stroke="none" target-height="4.200012" target-width="17" target-x="362.6" target-y="635.1"></path><path d="M 358.80 648.30 L 348.10 651.10 L 348.10 642.60 L 358.90 647.20 L 358.80 648.30 Z" fill="#ffffff" fill-rule="nonzero" node-id="254" stroke="none" target-height="8.5" target-width="10.799988" target-x="348.1" target-y="642.6"></path><path d="M 557.30 635.90 L 562.70 635.60 L 562.00 642.20 L 559.70 645.30 L 557.70 643.10 L 557.40 642.40 L 557.30 635.90 Z" fill="#ffffff" fill-rule="nonzero" node-id="256" stroke="none" target-height="9.700012" target-width="5.4000244" target-x="557.3" target-y="635.6"></path><path d="M 394.30 366.60 L 409.50 360.60 L 409.30 362.00 L 408.60 363.30 L 407.40 364.50 L 404.10 366.30 L 399.50 367.10 L 394.30 366.60 Z" fill="#ffffff" fill-rule="nonzero" node-id="258" stroke="none" target-height="6.5" target-width="15.200012" target-x="394.3" target-y="360.6"></path><path d="M 406.80 375.30 L 404.80 378.60 L 401.70 380.70 L 399.20 381.50 L 396.20 381.80 L 392.60 381.40 L 406.80 375.30 Z" fill="#ffffff" fill-rule="nonzero" node-id="260" stroke="none" target-height="6.5" target-width="14.199982" target-x="392.6" target-y="375.3"></path><path d="M 266.40 884.90 L 237.30 844.90 L 306.40 846.30 L 308.60 846.90 L 310.60 848.00 L 312.40 849.70 L 327.20 865.40 L 295.80 873.00 L 288.20 875.30 L 275.90 879.90 L 266.40 884.90 Z M 308.10 854.20 L 303.60 852.50 L 302.70 852.50 L 287.40 856.20 L 272.10 860.20 L 271.40 860.60 L 269.50 863.80 L 273.00 865.20 L 274.00 865.20 L 302.20 857.30 L 308.10 854.20 Z" fill="#ffffff" fill-rule="nonzero" node-id="262" stroke="none" target-height="40" target-width="89.90001" target-x="237.3" target-y="844.9"></path><path d="M 630.10 713.80 L 629.50 707.20 L 629.70 705.60 L 630.40 704.40 L 631.30 703.40 L 632.70 702.60 L 634.70 702.20 L 695.20 694.90 L 696.70 695.30 L 697.70 696.00 L 699.00 698.50 L 700.00 709.10 L 699.90 711.10 L 698.90 713.70 L 696.80 715.30 L 694.90 716.00 L 686.80 717.30 L 633.50 723.70 L 631.30 723.00 L 630.60 722.20 L 630.10 721.00 L 630.10 713.80 Z" fill="#000000" fill-rule="nonzero" node-id="264" stroke="none" target-height="28.799988" target-width="70.5" target-x="629.5" target-y="694.9"></path><path d="M 596.00 734.70 L 591.90 737.60 L 591.00 737.80 L 589.60 737.20 L 588.40 735.90 L 587.90 734.60 L 589.10 732.60 L 591.10 731.40 L 592.00 731.60 L 596.00 734.70 Z" fill="#000000" fill-rule="nonzero" node-id="266" stroke="none" target-height="6.3999634" target-width="8.099976" target-x="587.9" target-y="731.4"></path><path d="M 566.70 749.40 L 562.80 752.30 L 561.90 752.60 L 560.60 752.10 L 559.40 750.80 L 559.00 749.70 L 560.30 747.70 L 562.20 746.30 L 564.00 747.20 L 566.70 749.40 Z" fill="#000000" fill-rule="nonzero" node-id="268" stroke="none" target-height="6.299988" target-width="7.700012" target-x="559" target-y="746.3"></path><path d="M 739.10 724.50 L 742.00 728.40 L 742.30 729.30 L 742.00 730.10 L 739.30 732.60 L 736.60 730.00 L 736.20 729.10 L 736.30 728.30 L 739.10 724.50 Z" fill="#000000" fill-rule="nonzero" node-id="270" stroke="none" target-height="8.099976" target-width="6.0999756" target-x="736.2" target-y="724.5"></path><path d="M 688.50 774.40 L 691.20 777.40 L 691.40 778.10 L 691.10 779.00 L 688.80 781.70 L 686.00 779.50 L 685.60 778.80 L 685.80 777.90 L 688.50 774.40 Z" fill="#000000" fill-rule="nonzero" node-id="272" stroke="none" target-height="7.299988" target-width="5.800049" target-x="685.6" target-y="774.4"></path><path d="M 378.60 586.30 L 373.10 589.50 L 371.90 589.70 L 371.10 589.40 L 369.60 587.90 L 368.40 585.10 L 368.60 584.50 L 370.00 582.90 L 371.80 581.70 L 372.60 581.60 L 373.80 582.10 L 378.60 586.40 Z" fill="#000000" fill-rule="nonzero" node-id="274" stroke="none" target-height="8.100037" target-width="10.200012" target-x="368.4" target-y="581.6"></path><path d="M 578.30 579.30 L 573.50 583.00 L 572.40 583.40 L 571.00 582.80 L 569.70 581.30 L 569.10 579.70 L 569.70 578.30 L 571.80 576.50 L 573.60 576.40 L 578.30 579.30 Z" fill="#000000" fill-rule="nonzero" node-id="276" stroke="none" target-height="7" target-width="9.200012" target-x="569.1" target-y="576.4"></path><path d="M 283.60 699.60 L 279.20 707.00 L 278.70 707.30 L 275.90 707.70 L 276.20 704.70 L 281.80 698.30 L 283.60 699.60 Z" fill="#000000" fill-rule="nonzero" node-id="278" stroke="none" target-height="9.400024" target-width="7.700012" target-x="275.9" target-y="698.3"></path><path d="M 327.60 611.80 L 322.60 620.10 L 321.60 620.50 L 320.50 620.50 L 320.00 619.20 L 320.00 618.00 L 325.80 610.60 L 327.60 611.80 Z" fill="#000000" fill-rule="nonzero" node-id="280" stroke="none" target-height="9.900024" target-width="7.600006" target-x="320" target-y="610.6"></path><path d="M 590.30 585.70 L 592.80 589.90 L 593.00 590.90 L 592.70 591.70 L 590.00 594.00 L 587.50 591.20 L 587.20 590.30 L 587.30 589.50 L 590.30 585.70 Z" fill="#000000" fill-rule="nonzero" node-id="282" stroke="none" target-height="8.299988" target-width="5.799988" target-x="587.2" target-y="585.7"></path><path d="M 389.10 600.70 L 386.70 597.30 L 386.70 596.60 L 387.90 594.90 L 389.60 593.30 L 392.10 595.80 L 392.40 596.60 L 392.10 597.40 L 389.10 600.70 Z" fill="#000000" fill-rule="nonzero" node-id="284" stroke="none" target-height="7.4000244" target-width="5.6999817" target-x="386.7" target-y="593.3"></path><path d="M 314.40 627.90 L 310.10 635.10 L 307.90 633.90 L 312.00 626.60 L 314.40 627.90 Z" fill="#000000" fill-rule="nonzero" node-id="286" stroke="none" target-height="8.5" target-width="6.5" target-x="307.9" target-y="626.6"></path><path d="M 308.10 854.20 L 302.20 857.30 L 274.00 865.20 L 273.00 865.20 L 269.50 863.80 L 271.40 860.60 L 272.10 860.20 L 287.40 856.20 L 302.70 852.50 L 303.60 852.50 L 308.10 854.20 Z" fill="#000000" fill-rule="nonzero" node-id="288" stroke="none" target-height="12.700012" target-width="38.600006" target-x="269.5" target-y="852.5"></path></svg>